<svg xmlns="http://www.w3.org/2000/svg" width="960.552" height="430.967" viewBox="0 0 960.552 430.967">
  <g id="Voiture" transform="translate(286.094 110.677)" style="mix-blend-mode: multiply;isolation: isolate">
    <g id="Groupe_14" data-name="Groupe 14" transform="translate(4.904 17.514)" style="isolation: isolate">
      <path id="Tracé_54" data-name="Tracé 54" d="M53.244,45.063c-26.183,16.8-34.15,36.213-44.775,64.585s-10.625,101.728,0,130.1,18.592,47.784,44.775,64.585,49.52,33.038,71.148,33.038H692.983a372.056,372.056,0,0,0,88.658-10.712l21.111-5.181a77.356,77.356,0,0,0,59.132-60.675l.007.041c.063-.34.124-.691.185-1.054q.365-2.069.619-4.169c3.295-24.823,5.062-80.925,5.062-80.925s-1.767-56.1-5.062-80.925q-.251-2.1-.619-4.167c-.061-.363-.122-.716-.185-1.056l-.007.043a77.362,77.362,0,0,0-59.132-60.677L781.64,22.737a372.054,372.054,0,0,0-88.658-10.712H124.392C102.764,12.025,79.428,28.264,53.244,45.063Z" transform="translate(-236.55 -85.89)" fill="rgba(255,255,255,0)" stroke="#8b8b8b" stroke-linejoin="round" stroke-miterlimit="10" stroke-width="2"/>
      <path id="Tracé_14" data-name="Tracé 14" d="M4.7,66.41l21.978-19.2c-10.625,30.852-11.005,87.074-11.005,87.074" transform="translate(-231.617 -45.687)" fill="#fff" stroke="#8b8b8b" stroke-linejoin="round" stroke-miterlimit="10" stroke-width="2"/>
      <path id="Tracé_15" data-name="Tracé 15" d="M125.212,19.032l1.139,6.412s94.771,26.762,159.088,30.667S432.289,58.9,467.581,50.535c29.765-7.055,44.4-13.521,47.648-18.892,1.463-2.414-.741-5.48-3.6-5.663-18.8-1.213-90.5-5.744-131.136-6.949C333.442,17.637,130.241,19.032,125.212,19.032Z" transform="translate(-90.233 -78.68)" fill="#fff" stroke="#8b8b8b" stroke-linejoin="round" stroke-miterlimit="10" stroke-width="2"/>
      <path id="Tracé_16" data-name="Tracé 16" d="M288.205,21.191H146.688l1.423,10.036s30.736,8.364,84.428,15.984c20.991,2.98,45.395,3.913,73.464,4.626Z" transform="translate(-65.036 -75.543)" fill="#f4f4f4" stroke="#8b8b8b" stroke-linejoin="round" stroke-miterlimit="10" stroke-width="2"/>
      <path id="Tracé_17" data-name="Tracé 17" d="M331.456,24c-41.253-1.692-82.8-2.412-108.191-2.714l7.393,30.786,1.78.04c46.857,1.1,81.106-2.2,105.574-6.721Z" transform="translate(24.808 -75.431)" fill="#f4f4f4" stroke="#8b8b8b" stroke-linejoin="round" stroke-miterlimit="10" stroke-width="2"/>
      <path id="Tracé_18" data-name="Tracé 18" d="M282.546,42.522c25.872-5.384,39.351-11.967,44.593-15.013a1.038,1.038,0,0,0-.465-1.935c-15.8-1.167-33.066-2.112-50.55-2.876Z" transform="translate(86.825 -73.842)" fill="#f4f4f4" stroke="#8b8b8b" stroke-linejoin="round" stroke-miterlimit="10" stroke-width="2"/>
      <path id="Tracé_19" data-name="Tracé 19" d="M15.9,77.658l52.486-50.5a2.369,2.369,0,0,0,.732-1.71V21.115a.892.892,0,0,0-1.265-.8C60.847,23.493,26.718,40.7,13.9,79.4Z" transform="translate(-220.831 -76.625)" fill="#fff500" stroke="#8b8b8b" stroke-linejoin="round" stroke-miterlimit="10" stroke-width="2"/>
      <path id="Tracé_20" data-name="Tracé 20" d="M8.309,73.891S32.7,38.672,61.825,23.57" transform="translate(-227.388 -72.857)" fill="rgba(255,255,255,0)" stroke="#8b8b8b" stroke-miterlimit="10" stroke-width="2"/>
      <path id="Tracé_21" data-name="Tracé 21" d="M39.306,28.907s39.56-9.789,98.754-11.483S351.373,13.6,439.094,14.455s194.025.294,251.364,4.888c28.635,2.295,58.946,9.5,58.946,9.5" transform="translate(-191.021 -83.365)" fill="rgba(255,255,255,0)" stroke="#8b8b8b" stroke-linejoin="round" stroke-miterlimit="10" stroke-width="2"/>
      <path id="Tracé_22" data-name="Tracé 22" d="M402.436,67.047,415.343,69.3s-.265-18.381-21.7-36.224c0,0-17.064-9.4-26.172-11.26A80.815,80.815,0,0,1,389.729,41.79C400.291,58.049,400.158,59.613,402.436,67.047Z" transform="translate(190.06 -76.627)" fill="#fd171f" stroke="#8b8b8b" stroke-linejoin="round" stroke-miterlimit="10" stroke-width="2"/>
      <path id="Tracé_23" data-name="Tracé 23" d="M14.818,79.385S97.351,30.691,254.731,18.7" transform="translate(-219.751 -78.352)" fill="#fff" stroke="#8b8b8b" stroke-miterlimit="10" stroke-width="2"/>
      <path id="Tracé_24" data-name="Tracé 24" d="M16.651,79.55S63.893,50.518,180.007,48.027C180.007,48.027,76.985,56.689,16.651,79.55Z" transform="translate(-217.601 -44.833)" fill="#fff" stroke="#8b8b8b" stroke-linejoin="round" stroke-miterlimit="10" stroke-width="2"/>
      <path id="Tracé_25" data-name="Tracé 25" d="M345,37.779a637.374,637.374,0,0,1,91.6,11.172" transform="translate(167.629 -56.51)" fill="#fff" stroke="#8b8b8b" stroke-miterlimit="10" stroke-width="2"/>
      <line id="Ligne_3" data-name="Ligne 3" x2="17.858" y2="2.316" transform="translate(608.008 3.538)" fill="none" stroke="#8b8b8b" stroke-miterlimit="10" stroke-width="2"/>
      <path id="Tracé_26" data-name="Tracé 26" d="M264.822,42.483s69.887-5.556,105.557-8.516,37.567-6.3,81.584-.543,61.99,7.26,61.99,7.26" transform="translate(73.565 -65.043)" fill="#fff" stroke="#8b8b8b" stroke-linejoin="round" stroke-miterlimit="10" stroke-width="2"/>
      <path id="Tracé_27" data-name="Tracé 27" d="M302.228,21.915s35.268,1.377,77.389,6.8S462.34,39.889,462.34,39.889" transform="translate(117.452 -74.726)" fill="#fff" stroke="#8b8b8b" stroke-linejoin="round" stroke-miterlimit="10" stroke-width="2"/>
      <path id="Tracé_28" data-name="Tracé 28" d="M5.96,103.678S12.673,90.05,23.211,82.506c0,0,71.441-42.948,243.051-60.791" transform="translate(-230.144 -74.951)" fill="#fff" stroke="#8b8b8b" stroke-linejoin="round" stroke-miterlimit="10" stroke-width="2"/>
      <path id="Tracé_29" data-name="Tracé 29" d="M4.7,155.979l21.978,19.2C16.058,144.33,15.678,88.108,15.678,88.108" transform="translate(-231.617 0.912)" fill="#fff" stroke="#8b8b8b" stroke-linejoin="round" stroke-miterlimit="10" stroke-width="2"/>
      <path id="Tracé_30" data-name="Tracé 30" d="M125.212,178.32l1.139-6.412s94.771-26.762,159.088-30.667,146.851-2.787,182.142,5.576c29.765,7.055,44.4,13.523,47.648,18.894,1.463,2.414-.741,5.478-3.6,5.661-18.8,1.214-90.5,5.746-131.136,6.949C333.442,179.715,130.241,178.32,125.212,178.32Z" transform="translate(-90.233 58.943)" fill="#fff" stroke="#8b8b8b" stroke-linejoin="round" stroke-miterlimit="10" stroke-width="2"/>
      <path id="Tracé_31" data-name="Tracé 31" d="M288.205,171.275H146.688l1.423-10.036s30.736-8.364,84.428-15.984c20.991-2.98,45.395-3.913,73.464-4.626Z" transform="translate(-65.036 60.691)" fill="#f4f4f4" stroke="#8b8b8b" stroke-linejoin="round" stroke-miterlimit="10" stroke-width="2"/>
      <path id="Tracé_32" data-name="Tracé 32" d="M331.456,168.672c-41.253,1.692-82.8,2.412-108.191,2.714l7.393-30.786,1.78-.04c46.857-1.1,81.106,2.2,105.574,6.721Z" transform="translate(24.808 60.37)" fill="#f4f4f4" stroke="#8b8b8b" stroke-linejoin="round" stroke-miterlimit="10" stroke-width="2"/>
      <path id="Tracé_33" data-name="Tracé 33" d="M282.546,144.207c25.872,5.384,39.351,11.967,44.593,15.013a1.038,1.038,0,0,1-.465,1.935c-15.8,1.169-33.066,2.112-50.55,2.876Z" transform="translate(86.825 64.729)" fill="#f4f4f4" stroke="#8b8b8b" stroke-linejoin="round" stroke-miterlimit="10" stroke-width="2"/>
      <path id="Tracé_34" data-name="Tracé 34" d="M15.9,129.935l52.486,50.5a2.369,2.369,0,0,1,.732,1.71v4.334a.892.892,0,0,1-1.265.8c-7-3.178-41.133-20.384-53.953-59.09Z" transform="translate(-220.831 46.646)" fill="#fff500" stroke="#8b8b8b" stroke-linejoin="round" stroke-miterlimit="10" stroke-width="2"/>
      <path id="Tracé_35" data-name="Tracé 35" d="M8.309,129.009S32.7,164.227,61.825,179.33" transform="translate(-227.388 47.572)" fill="rgba(255,255,255,0)" stroke="#8b8b8b" stroke-miterlimit="10" stroke-width="2"/>
      <path id="Tracé_36" data-name="Tracé 36" d="M39.306,153s39.56,12.842,98.754,15.064,213.313,5.009,301.034,3.894,194.025-.385,251.364-6.412c28.635-3.01,58.659-8.042,58.659-8.042" transform="translate(-191.021 74.502)" fill="rgba(255,255,255,0)" stroke="#8b8b8b" stroke-linejoin="round" stroke-miterlimit="10" stroke-width="2"/>
      <path id="Tracé_38" data-name="Tracé 38" d="M14.818,129.009S97.351,177.7,254.731,189.691" transform="translate(-219.751 47.572)" fill="#fff" stroke="#8b8b8b" stroke-miterlimit="10" stroke-width="2"/>
      <path id="Tracé_39" data-name="Tracé 39" d="M16.651,113.382S63.893,142.414,180.007,144.9C180.007,144.9,76.985,136.242,16.651,113.382Z" transform="translate(-217.601 29.516)" fill="#fff" stroke="#8b8b8b" stroke-linejoin="round" stroke-miterlimit="10" stroke-width="2"/>
      <path id="Tracé_40" data-name="Tracé 40" d="M513.443,258.4c-76.272-4.483-151.929-2.722-189.826-.479s-147.755,31.2-166.538,35.4-28.743,1.4-46.388-40.076S94.183,159.93,94.183,159.93s-1.137-51.844,16.508-93.321,27.6-44.277,46.388-40.074S285.722,59.7,323.617,61.939s113.58,4.066,189.853-.417" transform="translate(-126.654 -71.123)" fill="#fff" stroke="#8b8b8b" stroke-linejoin="round" stroke-miterlimit="10" stroke-width="2"/>
      <path id="Tracé_41" data-name="Tracé 41" d="M304.512,146.1c0,25.564-2.656,65.564-17.834,100.732,0,0,80.445,11.223,126.739,7.109,0,0,26.183-35.727,26.183-107.841S413.417,38.261,413.417,38.261c-46.294-4.114-126.739,7.109-126.739,7.109C301.856,80.539,304.512,120.538,304.512,146.1Z" transform="translate(99.207 -57.296)" fill="#fff" stroke="#8b8b8b" stroke-linejoin="round" stroke-miterlimit="10" stroke-width="2"/>
      <path id="Tracé_42" data-name="Tracé 42" d="M429.587,143.144c0,59.7-18.525,94.018-23.754,102.51-37.276,2.748-95.282-3.832-115.471-6.362,12.742-33.348,15.521-70.29,15.521-96.148S303.106,80.343,290.362,47c20.189-2.527,78.2-9.107,115.471-6.362C411.051,49.107,429.587,83.425,429.587,143.144Z" transform="translate(103.53 -54.336)" fill="#f4f4f4" stroke="#8b8b8b" stroke-linejoin="round" stroke-miterlimit="10" stroke-width="2"/>
      <path id="Tracé_43" data-name="Tracé 43" d="M345,144.055a626.941,626.941,0,0,0,92.385-11.016" transform="translate(167.629 52.293)" fill="#fff" stroke="#8b8b8b" stroke-miterlimit="10" stroke-width="2"/>
      <path id="Tracé_44" data-name="Tracé 44" d="M387.687,235.553s9.675-40.019,9.675-96.136-9.675-96.138-9.675-96.138" transform="translate(217.715 -50.608)" fill="#fff" stroke="#8b8b8b" stroke-linejoin="round" stroke-miterlimit="10" stroke-width="2"/>
      <line id="Ligne_4" data-name="Ligne 4" y1="2.316" x2="17.858" transform="translate(608.008 171.761)" fill="none" stroke="#8b8b8b" stroke-miterlimit="10" stroke-width="2"/>
      <path id="Tracé_45" data-name="Tracé 45" d="M264.822,140.207s69.887,5.556,105.557,8.516,37.567,6.3,81.584.543,61.99-7.257,61.99-7.257" transform="translate(73.565 59.968)" fill="#fff" stroke="#8b8b8b" stroke-linejoin="round" stroke-miterlimit="10" stroke-width="2"/>
      <path id="Tracé_46" data-name="Tracé 46" d="M302.228,163.833s35.268-1.377,77.389-6.8,82.722-11.179,82.722-11.179" transform="translate(117.452 66.594)" fill="#fff" stroke="#8b8b8b" stroke-linejoin="round" stroke-miterlimit="10" stroke-width="2"/>
      <path id="Tracé_47" data-name="Tracé 47" d="M148.551,292.954s-48.09-23.229-48.09-133.647,48.09-133.647,48.09-133.647" transform="translate(-119.271 -70.499)" fill="#fff" stroke="#8b8b8b" stroke-linejoin="round" stroke-miterlimit="10" stroke-width="2"/>
      <path id="Tracé_48" data-name="Tracé 48" d="M3.827,185.425c6.565,9.471,4.818-9.193,2.825-31.218a332.709,332.709,0,0,1,0-63c1.993-22.026,3.74-40.69-2.825-31.218" transform="translate(-232.647 -33.898)" fill="rgba(255,255,255,0)" stroke="#8b8b8b" stroke-linejoin="round" stroke-miterlimit="10" stroke-width="2"/>
      <path id="Tracé_49" data-name="Tracé 49" d="M5.96,116s6.713,13.627,17.251,21.172c0,0,71.441,42.948,243.051,60.791" transform="translate(-230.144 32.887)" fill="#fff" stroke="#8b8b8b" stroke-linejoin="round" stroke-miterlimit="10" stroke-width="2"/>
      <path id="Tracé_50" data-name="Tracé 50" d="M144.507,29.5c-8.254,1.963-17.645,20.839-27.889,47.378s-11.005,58.476-11.005,78.217.758,51.677,11.005,78.217,19.635,45.415,27.889,47.378,103.877-21.305,103.877-21.305-14.8-41.772-14.8-104.29,14.8-104.29,14.8-104.29S152.761,27.541,144.507,29.5Z" transform="translate(-113.228 -66.292)" fill="#f4f4f4"/>
      <path id="Tracé_51" data-name="Tracé 51" d="M183.445,252.045s-35.865-103.722,0-213.738" transform="translate(-40.611 -56.221)" fill="#fff" stroke="#8b8b8b" stroke-miterlimit="10" stroke-width="2"/>
      <path id="Tracé_52" data-name="Tracé 52" d="M132.783,45.665h19.353l2.284-9.4a3.058,3.058,0,0,1,2.988-2.314h.871a2.614,2.614,0,0,0,2.454-1.678l11.5-30.722A.781.781,0,0,0,171.488.5h-4.6A16.817,16.817,0,0,0,152,9.367Z" transform="translate(-81.349 -98.901)" fill="#fff" stroke="#8b8b8b" stroke-linejoin="round" stroke-miterlimit="10" stroke-width="2"/>
      <path id="Tracé_53" data-name="Tracé 53" d="M134.117,154.5H153.47l2.284,9.4a3.058,3.058,0,0,0,2.988,2.314h.871a2.614,2.614,0,0,1,2.454,1.678l11.5,30.722a.781.781,0,0,1-.745,1.047h-4.605a16.816,16.816,0,0,1-14.887-8.867Z" transform="translate(-79.784 76.351)" fill="#fff" stroke="#8b8b8b" stroke-linejoin="round" stroke-miterlimit="10" stroke-width="2"/>
      <path id="Tracé_231" data-name="Tracé 231" d="M-173.062-43.8c7.133-5.486,4.4-3.648,9.762-6.66s10.617-5.719,10.617-5.719l1.234,5.719-.59.795S-180.2-38.311-173.062-43.8Z" fill="#fe6f28" stroke="#8b8b8b" stroke-width="1"/>
      <path id="Tracé_232" data-name="Tracé 232" d="M-173.062-54.678c7.133,5.486,4.4,3.649,9.762,6.66s10.617,5.719,10.617,5.719l1.234-5.719-.59-.795S-180.2-60.164-173.062-54.678Z" transform="translate(0 276.14)" fill="#fe6f28" stroke="#8b8b8b" stroke-width="1"/>
      <g id="Ellipse_1" data-name="Ellipse 1" transform="translate(20.125 241.809)" fill="#fe6f28" stroke="#8b8b8b" stroke-width="1">
        <ellipse cx="11" cy="3" rx="11" ry="3" stroke="none"/>
        <ellipse cx="11" cy="3" rx="10.5" ry="2.5" fill="none"/>
      </g>
      <g id="Ellipse_2" data-name="Ellipse 2" transform="translate(20.125 -71.191)" fill="#fe6f28" stroke="#8b8b8b" stroke-width="1">
        <ellipse cx="11" cy="3" rx="11" ry="3" stroke="none"/>
        <ellipse cx="11" cy="3" rx="10.5" ry="2.5" fill="none"/>
      </g>
      <path id="Tracé_233" data-name="Tracé 233" d="M557.84-55.131s13.039,3.589,20.494,7.441,9.326,7.969,9.326,7.969l-14.8-4.023Z" fill="#ff6c00" stroke="#8b8b8b" stroke-width="1"/>
      <path id="Tracé_235" data-name="Tracé 235" d="M870.93,657.191s1.234,17.074.859,23.461,1.5,19.148.16,22.863c6.758-4.043,6.113-2.295,6.168-24.887.43-21.4-4.508-18.748-7.187-21.437" transform="matrix(1, 0.017, -0.017, 1, -450.867, -608.35)" fill="#fd171f" stroke="rgba(124,124,124,0.99)" stroke-width="1"/>
      <path id="Tracé_236" data-name="Tracé 236" d="M402.436,24.065l12.907-2.251s-.265,18.381-21.7,36.223c0,0-17.064,9.4-26.172,11.26a80.816,80.816,0,0,0,22.263-19.975C400.292,33.063,400.159,31.5,402.436,24.065Z" transform="translate(190.059 163.131)" fill="#fd171f" stroke="#8b8b8b" stroke-linejoin="round" stroke-miterlimit="10" stroke-width="2"/>
      <path id="Tracé_237" data-name="Tracé 237" d="M557.84-39.721s13.039-3.589,20.495-7.441,9.326-7.969,9.326-7.969l-14.8,4.023Z" transform="translate(0 272.467)" fill="#ff6c00" stroke="#8b8b8b" stroke-width="1"/>
    </g>
    <g id="Tracé_238" data-name="Tracé 238" transform="matrix(0.883, -0.469, 0.469, 0.883, -218.58, 186.744)" fill="#fff500">
      <path d="M 5.5 27.76201629638672 C 4.548980236053467 27.76201629638672 3.70265007019043 27.21979713439941 3.394000053405762 26.41277694702148 L 1.119729995727539 20.46617698669434 C 1.040279984474182 20.25844573974609 1 20.04189682006836 1 19.82255554199219 L 1 8.939446449279785 C 1 8.72010612487793 1.040279984474182 8.503556251525879 1.119740009307861 8.295816421508789 L 3.394000053405762 2.349236249923706 C 3.702640056610107 1.542216181755066 4.548980236053467 1.000006198883057 5.5 1.000006198883057 C 6.451019763946533 1.000006198883057 7.297359943389893 1.542216181755066 7.605999946594238 2.349236249923706 L 9.880270004272461 8.295825958251953 C 9.959710121154785 8.503565788269043 10 8.72011661529541 10 8.939455986022949 L 10 19.82256698608398 C 10 20.04189682006836 9.959710121154785 20.25844573974609 9.880260467529297 20.46620559692383 L 7.605999946594238 26.41277694702148 C 7.29734992980957 27.21979713439941 6.451019763946533 27.76201629638672 5.5 27.76201629638672 Z" stroke="none"/>
      <path d="M 5.499969959259033 2.000005722045898 C 4.969019889831543 2.000005722045898 4.487100124359131 2.290506362915039 4.328020095825195 2.706445693969727 L 2.053759574890137 8.653017044067383 C 2.01809024810791 8.746295928955078 2 8.842666625976562 2 8.939445495605469 L 2 19.82255554199219 C 2 19.91933631896973 2.01809024810791 20.01570510864258 2.053750038146973 20.10896682739258 L 4.328020095825195 26.05556678771973 C 4.487100124359131 26.47151565551758 4.969039916992188 26.76201629638672 5.5 26.76201629638672 C 6.030960083007812 26.76201629638672 6.512899875640869 26.47151565551758 6.671979904174805 26.05556678771973 L 8.946229934692383 20.10901641845703 C 8.98190975189209 20.01571655273438 9 19.91933631896973 9 19.82255554199219 L 9 8.939456939697266 C 9 8.842676162719727 8.98190975189209 8.746295928955078 8.946249961853027 8.653036117553711 L 6.671979904174805 2.706445693969727 C 6.512899875640869 2.290506362915039 6.03095006942749 2.000005722045898 5.499969959259033 2.000005722045898 M 5.499974250793457 5.7220458984375e-06 C 5.500057697296143 5.7220458984375e-06 5.499916553497314 5.7220458984375e-06 5.5 5.7220458984375e-06 C 6.865660190582275 5.7220458984375e-06 8.083330154418945 0.7978954315185547 8.540019989013672 1.992015838623047 L 10.81429004669189 7.938606262207031 C 10.93719005584717 8.259975433349609 11 8.598455429077148 11 8.939456939697266 L 11 19.82255554199219 C 11 20.16355514526367 10.93719005584717 20.50203704833984 10.81429004669189 20.82340621948242 L 8.540019989013672 26.76999664306641 C 8.083330154418945 27.9641170501709 6.865660190582275 28.76201629638672 5.5 28.76201629638672 C 4.134339809417725 28.76201629638672 2.916669845581055 27.9641170501709 2.459980010986328 26.76999664306641 L 0.1857099533081055 20.82339668273926 C 0.06280994415283203 20.50203704833984 0 20.16354751586914 0 19.82255554199219 L 0 8.939445495605469 C 0 8.598455429077148 0.06280994415283203 8.259965896606445 0.1857099533081055 7.938606262207031 L 2.459980010986328 1.992015838623047 C 2.916642189025879 0.7979698181152344 4.134425640106201 5.7220458984375e-06 5.499974250793457 5.7220458984375e-06 Z" stroke="none" fill="#8b8b8b"/>
    </g>
    <g id="Tracé_239" data-name="Tracé 239" transform="matrix(0.883, 0.469, -0.469, 0.883, -205.078, 1.58)" fill="#fff500">
      <path d="M 5.499865055084229 27.76119804382324 C 4.548875331878662 27.76119804382324 3.702575206756592 27.21900749206543 3.393955230712891 26.41203689575195 L 1.119755148887634 20.46561813354492 C 1.0403151512146 20.25790786743164 1.000035166740417 20.04136848449707 1.000035166740417 19.8220272064209 L 1.000065088272095 8.939237594604492 C 1.000065088272095 8.719917297363281 1.040345072746277 8.503377914428711 1.119795083999634 8.295647621154785 L 3.39403510093689 2.349207639694214 C 3.702665090560913 1.542217612266541 4.548974990844727 1.000027656555176 5.499975204467773 1.000017642974854 C 6.450944900512695 1.000017642974854 7.297255039215088 1.542207598686218 7.605885028839111 2.349187612533569 L 9.880075454711914 8.295587539672852 C 9.959515571594238 8.503317832946777 9.999794960021973 8.719857215881348 9.999794960021973 8.939197540283203 L 9.999765396118164 19.82198715209961 C 9.999765396118164 20.04130744934082 9.959485054016113 20.25784683227539 9.880035400390625 20.46557807922363 L 7.605794906616211 26.41200828552246 C 7.297164916992188 27.21899795532227 6.450855255126953 27.76118850708008 5.499855041503906 27.76119804382324 L 5.499865055084229 27.76119804382324 Z" stroke="none"/>
      <path d="M 5.499865055084229 26.76119804382324 L 5.499855041503906 26.76119804382324 C 6.030795097351074 26.76119804382324 6.512705326080322 26.47070693969727 6.671775341033936 26.05478668212891 L 8.946015357971191 20.10836791992188 C 8.981675148010254 20.01510810852051 8.999765396118164 19.91874694824219 8.999765396118164 19.82197761535645 L 8.999794960021973 8.939197540283203 C 8.999794960021973 8.84241771697998 8.981715202331543 8.746047973632812 8.94605541229248 8.652807235717773 L 6.671864986419678 2.70640754699707 C 6.512794971466064 2.290497541427612 6.030895233154297 2.000017642974854 5.499975204467773 2.000017642974854 C 4.969035148620605 2.000017642974854 4.487124919891357 2.290507555007935 4.328054904937744 2.706427574157715 L 2.053815126419067 8.652857780456543 C 2.018155097961426 8.74611759185791 2.000065088272095 8.842477798461914 2.000065088272095 8.939247131347656 L 2.000035047531128 19.8220272064209 C 2.000035047531128 19.91880798339844 2.018115043640137 20.01515769958496 2.053775072097778 20.10840797424316 L 4.327985286712646 26.0548267364502 C 4.487045288085938 26.47072792053223 4.968935012817383 26.76119804382324 5.499865055084229 26.76119804382324 M 5.499865055084229 28.76119804382324 C 4.134244918823242 28.76119804382324 2.916605234146118 27.96333694458008 2.459935188293457 26.76924705505371 L 0.1857351213693619 20.82283782958984 C 0.06283511966466904 20.50148773193359 3.512298644636758e-05 20.16300773620605 3.512298644636758e-05 19.8220272064209 L 6.512298568850383e-05 8.939237594604492 C 6.512298568850383e-05 8.598258018493652 0.06287512183189392 8.259778022766113 0.1857751160860062 7.938427448272705 L 2.460015058517456 1.991987586021423 C 2.916695117950439 0.7978975772857666 4.134335041046143 2.760498136922251e-05 5.499965190887451 1.760497980285436e-05 C 6.86559534072876 1.760497980285436e-05 8.083225250244141 0.7978876233100891 8.539905548095703 1.991967558860779 L 10.81409549713135 7.938377380371094 C 10.93699550628662 8.259737968444824 10.99979496002197 8.598207473754883 10.99979496002197 8.939197540283203 L 10.99976539611816 19.82198715209961 C 10.99976539611816 20.16296768188477 10.93695545196533 20.5014476776123 10.81405544281006 20.82279777526855 L 8.539814949035645 26.76922798156738 C 8.083134651184082 27.96331787109375 6.865495204925537 28.76118850708008 5.499865055084229 28.76119804382324 Z" stroke="none" fill="#8b8b8b"/>
    </g>
    <g id="Groupe_161" data-name="Groupe 161" transform="translate(-482.971 -600.678)">
      <g id="wifi" transform="translate(1060.658 472.699) rotate(31)">
        <path id="Tracé_240" data-name="Tracé 240" d="M62.82,107.648,66.4,111.22a15.092,15.092,0,0,1,20.792-.023l3.573-3.573a20.134,20.134,0,0,0-27.939.025Z" transform="translate(-29.404 -41.661)" fill="#ee5f00"/>
        <path id="Tracé_241" data-name="Tracé 241" d="M37.374,76.1l3.575,3.573a30.228,30.228,0,0,1,42.235-.025l3.573-3.573a35.275,35.275,0,0,0-49.383.025Z" transform="translate(-14.681 -20.831)" fill="#ee5f00"/>
        <path id="Tracé_242" data-name="Tracé 242" d="M82.8,44.515a50.417,50.417,0,0,0-70.8,0v.058l3.55,3.55A45.345,45.345,0,0,1,79.219,48.1L82.8,44.52Z" fill="#ee5f00"/>
      </g>
      <g id="wifi-2" data-name="wifi" transform="translate(1035.117 874.463) rotate(-31)">
        <path id="Tracé_240-2" data-name="Tracé 240" d="M0,3.573,3.575,0A15.092,15.092,0,0,0,24.367.023L27.94,3.6A20.134,20.134,0,0,1,0,3.57Z" transform="translate(21.416 0)" fill="#ee5f00"/>
        <path id="Tracé_241-2" data-name="Tracé 241" d="M0,3.573,3.575,0A30.228,30.228,0,0,0,45.811.025L49.383,3.6A35.275,35.275,0,0,1,0,3.573Z" transform="translate(10.693 10.721)" fill="#ee5f00"/>
        <path id="Tracé_242-2" data-name="Tracé 242" d="M70.8,3.608a50.417,50.417,0,0,1-70.8,0V3.55L3.55,0A45.345,45.345,0,0,0,67.219.025L70.8,3.6Z" transform="translate(0 21.436)" fill="#ee5f00"/>
      </g>
      <g id="wifi-3" data-name="wifi" transform="translate(473.25 460.002)">
        <path id="Tracé_240-3" data-name="Tracé 240" d="M62.82,107.648,66.4,111.22a15.092,15.092,0,0,1,20.792-.023l3.573-3.573a20.134,20.134,0,0,0-27.939.025Z" transform="translate(-29.404 -41.661)" fill="#ee5f00"/>
        <path id="Tracé_241-3" data-name="Tracé 241" d="M37.374,76.1l3.575,3.573a30.228,30.228,0,0,1,42.235-.025l3.573-3.573a35.275,35.275,0,0,0-49.383.025Z" transform="translate(-14.681 -20.831)" fill="#ee5f00"/>
        <path id="Tracé_242-3" data-name="Tracé 242" d="M82.8,44.515a50.417,50.417,0,0,0-70.8,0v.058l3.55,3.55A45.345,45.345,0,0,1,79.219,48.1L82.8,44.52Z" fill="#ee5f00"/>
      </g>
      <g id="wifi-4" data-name="wifi" transform="matrix(0.819, -0.574, 0.574, 0.819, 238.963, 523.191)">
        <path id="Tracé_240-4" data-name="Tracé 240" d="M62.82,107.648,66.4,111.22a15.092,15.092,0,0,1,20.792-.023l3.573-3.573a20.134,20.134,0,0,0-27.939.025Z" transform="translate(-29.404 -41.661)" fill="#ee5f00"/>
        <path id="Tracé_241-4" data-name="Tracé 241" d="M37.374,76.1l3.575,3.573a30.228,30.228,0,0,1,42.235-.025l3.573-3.573a35.275,35.275,0,0,0-49.383.025Z" transform="translate(-14.681 -20.831)" fill="#ee5f00"/>
        <path id="Tracé_242-4" data-name="Tracé 242" d="M82.8,44.515a50.417,50.417,0,0,0-70.8,0v.058l3.55,3.55A45.345,45.345,0,0,1,79.219,48.1L82.8,44.52Z" fill="#ee5f00"/>
      </g>
      <g id="wifi-5" data-name="wifi" transform="matrix(0.819, 0.574, -0.574, 0.819, 288.693, 845.951)">
        <path id="Tracé_240-5" data-name="Tracé 240" d="M0,3.573,3.575,0A15.092,15.092,0,0,0,24.367.024L27.939,3.6A20.134,20.134,0,0,1,0,3.571Z" transform="translate(21.416 0.001)" fill="#ee5f00"/>
        <path id="Tracé_241-5" data-name="Tracé 241" d="M0,3.574,3.575,0A30.227,30.227,0,0,0,45.81.027L49.383,3.6A35.274,35.274,0,0,1,0,3.574Z" transform="translate(10.693 10.721)" fill="#ee5f00"/>
        <path id="Tracé_242-5" data-name="Tracé 242" d="M70.8,3.611a50.417,50.417,0,0,1-70.8,0V3.551L3.55,0A45.345,45.345,0,0,0,67.219.028L70.8,3.606Z" transform="translate(0 21.437)" fill="#ee5f00"/>
      </g>
      <g id="wifi-6" data-name="wifi" transform="translate(485.25 881.406)">
        <path id="Tracé_240-6" data-name="Tracé 240" d="M62.82,105.575,66.4,102a15.092,15.092,0,0,0,20.792.023l3.573,3.573a20.134,20.134,0,0,1-27.939-.025Z" transform="translate(-41.404 -102.003)" fill="#ee5f00"/>
        <path id="Tracé_241-6" data-name="Tracé 241" d="M37.374,69.574,40.949,66a30.228,30.228,0,0,0,42.235.025L86.757,69.6a35.274,35.274,0,0,1-49.383-.025Z" transform="translate(-26.681 -55.28)" fill="#ee5f00"/>
        <path id="Tracé_242-6" data-name="Tracé 242" d="M82.8,33.606a50.417,50.417,0,0,1-70.8,0v-.058L15.55,30a45.345,45.345,0,0,0,63.669.025L82.8,33.6Z" transform="translate(-12 -8.562)" fill="#ee5f00"/>
      </g>
      <g id="wifi-7" data-name="wifi" transform="translate(234.906 764.707) rotate(74)">
        <path id="Tracé_240-7" data-name="Tracé 240" d="M62.82,105.575,66.4,102a15.092,15.092,0,0,0,20.792.023l3.573,3.573a20.134,20.134,0,0,1-27.939-.025Z" transform="translate(-41.404 -102.003)" fill="#fff500"/>
        <path id="Tracé_241-7" data-name="Tracé 241" d="M37.374,69.574,40.949,66a30.228,30.228,0,0,0,42.235.025L86.757,69.6a35.274,35.274,0,0,1-49.383-.025Z" transform="translate(-26.681 -55.28)" fill="#fff500"/>
        <path id="Tracé_242-7" data-name="Tracé 242" d="M82.8,33.606a50.417,50.417,0,0,1-70.8,0v-.058L15.55,30a45.345,45.345,0,0,0,63.669.025L82.8,33.6Z" transform="translate(-12 -8.562)" fill="#fff500"/>
      </g>
      <g id="wifi-8" data-name="wifi" transform="translate(1157.429 782.391) rotate(90)">
        <path id="Tracé_240-8" data-name="Tracé 240" d="M0,5.645,3.575,9.218A15.092,15.092,0,0,1,24.367,9.2l3.573-3.573A20.134,20.134,0,0,0,0,5.648Z" transform="translate(21.416 30.344)" fill="#fd171f"/>
        <path id="Tracé_241-8" data-name="Tracé 241" d="M0,10.1l3.575,3.573a30.227,30.227,0,0,1,42.235-.025l3.573-3.573A35.274,35.274,0,0,0,0,10.1Z" transform="translate(10.693 15.172)" fill="#fd171f"/>
        <path id="Tracé_242-8" data-name="Tracé 242" d="M70.8,14.517a50.417,50.417,0,0,0-70.8,0v.058l3.55,3.55A45.345,45.345,0,0,1,67.219,18.1L70.8,14.522Z" fill="#fd171f"/>
      </g>
      <g id="wifi-9" data-name="wifi" transform="translate(1157.429 564.602) rotate(90)">
        <path id="Tracé_240-9" data-name="Tracé 240" d="M0,5.645,3.575,9.218A15.092,15.092,0,0,1,24.367,9.2l3.573-3.573A20.134,20.134,0,0,0,0,5.648Z" transform="translate(21.416 30.344)" fill="#fd171f"/>
        <path id="Tracé_241-9" data-name="Tracé 241" d="M0,10.1l3.575,3.573a30.227,30.227,0,0,1,42.235-.025l3.573-3.573A35.274,35.274,0,0,0,0,10.1Z" transform="translate(10.693 15.172)" fill="#fd171f"/>
        <path id="Tracé_242-9" data-name="Tracé 242" d="M70.8,14.517a50.417,50.417,0,0,0-70.8,0v.058l3.55,3.55A45.345,45.345,0,0,1,67.219,18.1L70.8,14.522Z" fill="#fd171f"/>
      </g>
      <g id="wifi-10" data-name="wifi" transform="translate(960 671.602) rotate(90)">
        <path id="Tracé_240-10" data-name="Tracé 240" d="M0,5.645,3.575,9.218A15.092,15.092,0,0,1,24.367,9.2l3.573-3.573A20.134,20.134,0,0,0,0,5.648Z" transform="translate(21.416 30.344)" fill="#fd171f"/>
        <path id="Tracé_241-10" data-name="Tracé 241" d="M0,10.1l3.575,3.573a30.227,30.227,0,0,1,42.235-.025l3.573-3.573A35.274,35.274,0,0,0,0,10.1Z" transform="translate(10.693 15.172)" fill="#fd171f"/>
        <path id="Tracé_242-10" data-name="Tracé 242" d="M70.8,14.517a50.417,50.417,0,0,0-70.8,0v.058l3.55,3.55A45.345,45.345,0,0,1,67.219,18.1L70.8,14.522Z" fill="#fd171f"/>
      </g>
      <g id="wifi-11" data-name="wifi" transform="translate(196.877 641.344) rotate(-74)">
        <path id="Tracé_240-11" data-name="Tracé 240" d="M0,5.645,3.575,9.218a15.092,15.092,0,0,1,20.792-.023L27.94,5.622A20.134,20.134,0,0,0,0,5.648Z" transform="translate(21.416 30.343)" fill="#fff500"/>
        <path id="Tracé_241-11" data-name="Tracé 241" d="M0,10.1l3.575,3.573a30.228,30.228,0,0,1,42.235-.025l3.573-3.573A35.275,35.275,0,0,0,0,10.1Z" transform="translate(10.693 15.172)" fill="#fff500"/>
        <path id="Tracé_242-11" data-name="Tracé 242" d="M70.8,14.517a50.417,50.417,0,0,0-70.8,0v.058l3.55,3.55A45.345,45.345,0,0,1,67.219,18.1L70.8,14.522Z" transform="translate(0 0)" fill="#fff500"/>
      </g>
    </g>
  </g>
</svg>
