<svg xmlns="http://www.w3.org/2000/svg" xmlns:xlink="http://www.w3.org/1999/xlink" width="1920" height="1200" viewBox="0 0 1920 1200">

  <g xmlns="http://www.w3.org/2000/svg" id="Groupe_241" data-name="Groupe 241" transform="translate(0 0)" clip-path="url(#clip-path-2)">
            
    <path xmlns="http://www.w3.org/2000/svg" id="Tracé_441-2" data-name="Tracé 441" d="M26.988,18.1H42.476V6.6a6.61,6.61,0,0,1,6.6-6.6h28.07a6.61,6.61,0,0,1,6.6,6.6V18.1H187.8V6.6A6.611,6.611,0,0,1,194.4,0H222.47a6.61,6.61,0,0,1,6.6,6.6V18.1H244.56a27.026,27.026,0,0,1,26.988,26.991V157.958a27.026,27.026,0,0,1-26.988,26.991H26.988A27.031,27.031,0,0,1,0,157.958V45.092A27.031,27.031,0,0,1,26.988,18.1M182.693,94.75h15.116V79.637H208.85V94.75h15.116v11.045H208.85v15.113H197.808V105.795H182.693Zm-135.442,0H88.523v11.045H47.25Zm197.31-54.5H26.988a4.877,4.877,0,0,0-4.842,4.845V157.958a4.877,4.877,0,0,0,4.842,4.845H244.56a4.877,4.877,0,0,0,4.842-4.845V45.092a4.877,4.877,0,0,0-4.842-4.845" transform="translate(0 -0.001)" fill="#fe6f28"/>
    </g>  
<script xmlns=""/>
</svg>