<?xml version="1.0" encoding="utf-8"?>
<!-- Generator: Adobe Illustrator 24.3.0, SVG Export Plug-In . SVG Version: 6.00 Build 0)  -->
<svg version="1.1" id="Calque_1" xmlns="http://www.w3.org/2000/svg" xmlns:xlink="http://www.w3.org/1999/xlink" x="0px" y="0px"
	 viewBox="0 0 137.5 171.53" style="enable-background:new 0 0 137.5 171.53;" xml:space="preserve">
<g>
	<g>
		<g>
			<g>
				<path d="M104.75,68.25v-30.1c0-4.16-1.84-6.28-5.66-6.28H83.11v36.38H72.46V31.87H50.9v36.38H40.18v-46.2h61.15
					c9.62,0,14.13,5.05,14.13,15.01v31.19H104.75z"/>
			</g>
			<path d="M22.51,120.72v-46.2h60.12c10.24,0,15.42,6.21,15.42,16.24v13.99c0,9.83-5.12,15.97-15.42,15.97H22.51z M87.34,92.95
				c0-5.12-1.57-8.6-6.82-8.6H33.23v26.48h45.65c5.6,0,8.46-2.05,8.46-6.96V92.95z"/>
			<g>
				<g>
					<path d="M28.48,149.48c-4.59,0-6.72-2.36-6.72-7.1v-7.65c0-4.75,2.13-7.1,6.72-7.1h19.99v4.65H29.58
						c-1.87,0-2.71,0.97-2.71,2.97v6.62c0,1.94,0.84,2.94,2.71,2.94h18.89v4.68H28.48z"/>
					<path d="M77.4,149.48l-3.07-5.97H59.03l-3,5.97h-5.81l11.2-21.86H72.1l11.37,21.86H77.4z M68.42,131.72H64.9l-4.1,8.17h11.79
						L68.42,131.72z"/>
					<path d="M109.82,149.48c-0.36-0.26-0.55-0.65-0.55-1.42v-4.07c0-1.42-0.9-1.97-2.29-1.97H90.54v7.46h-5.07v-21.86h23.44
						c3.71,0,5.07,1.74,5.07,4.94v2.81c0,3.62-1.78,4.17-3.1,4.36c1.36,0.13,3.42,0.84,3.42,4.2v4.13c0,0.78,0.23,1.16,0.58,1.42
						H109.82z M108.95,133.76c0-1.26-0.52-1.91-1.87-1.91H90.54v6.14h16.31c1.26,0,2.1-0.48,2.1-1.91V133.76z"/>
				</g>
			</g>
			<g>
				<g>
					<path d="M110.1,85.25L110.1,85.25c2.96,0,5.36-2.4,5.36-5.36s-2.4-5.36-5.36-5.36h0c-2.92,0-5.28,2.33-5.35,5.24v0.25
						C104.82,82.91,107.18,85.25,110.1,85.25z"/>
					<path d="M110.1,89.2c-1.99,0-3.84-0.63-5.35-1.7v33.23h10.72V87.49C113.94,88.56,112.1,89.2,110.1,89.2z"/>
				</g>
			</g>
			<g>
				<g>
					<path d="M27.65,32.77L27.65,32.77c2.96,0,5.36-2.4,5.36-5.36s-2.4-5.36-5.36-5.36h0c-2.92,0-5.28,2.33-5.35,5.24v0.25
						C22.37,30.44,24.73,32.77,27.65,32.77z"/>
					<path d="M27.65,36.73c-1.99,0-3.84-0.63-5.35-1.7v33.23h10.72V35.01C31.5,36.09,29.65,36.73,27.65,36.73z"/>
				</g>
			</g>
		</g>
	</g>
</g>
</svg>
