<svg xmlns="http://www.w3.org/2000/svg" viewBox="0 0 60 60">
    <g xmlns="http://www.w3.org/2000/svg" data-name="Groupe 2" clip-path="url(#clip-path-2)" id="Groupe_2">
      <path id="Tracé_1" data-name="Tracé 1" d="M36.659,2.125A8.822,8.822,0,0,0,30.918,0H29.082a8.824,8.824,0,0,0-5.74,2.125L3.081,19.487A8.816,8.816,0,0,0,0,26.188V51.176A8.834,8.834,0,0,0,8.824,60H51.176A8.834,8.834,0,0,0,60,51.176V26.188a8.811,8.811,0,0,0-3.081-6.7ZM56.471,51.176a5.3,5.3,0,0,1-5.294,5.294H8.824a5.3,5.3,0,0,1-5.294-5.294V26.188a5.293,5.293,0,0,1,1.847-4.021L25.636,4.8a5.308,5.308,0,0,1,3.445-1.273h1.837A5.311,5.311,0,0,1,34.364,4.8l20.26,17.366a5.287,5.287,0,0,1,1.847,4.019Z" transform="translate(0)"/>
      <path id="Tracé_2" data-name="Tracé 2" d="M447.941,1105H426.765a1.765,1.765,0,1,0,0,3.529h21.176a1.765,1.765,0,1,0,0-3.529" transform="translate(-407.353 -1059.118)"/>
    </g>
</svg>