<svg xmlns="http://www.w3.org/2000/svg" xmlns:xlink="http://www.w3.org/1999/xlink" width="500" height="400" viewBox="0 0 300 400">
  <g id="Catégorie_Filtration" data-name="Catégorie Filtration" clip-path="url(#clip-Catégorie_Filtration)">
    <g id="PAGE_FOND" data-name="PAGE FOND">
      <g id="Filtre_à_air" data-name="Filtre à air" transform="translate(0 2)">
        <g id="Composant_31_3" data-name="Composant 31 – 3" transform="translate(0 336.938)">
          <text id="Filtre_à_air-2" data-name="Filtre à air" transform="translate(138 59)" fill="#c56a68" font-size="56" font-family="Poppins-Medium, Poppins" font-weight="500"><tspan x="-120" y="0">Filtre à air</tspan></text>
        </g>
        <g id="Filtre_à_air-3" data-name="Filtre à air" transform="translate(17)">
          <g id="Groupe_264" data-name="Groupe 264" clip-path="url(#clip-path-4)">
            <path id="Tracé_475" data-name="Tracé 475" d="M112.324.043c2.387-.1,4.806.011,7.2,0,1.2-.006,2.4-.012,3.6,0,2.867.027,5.774-.1,8.637,0,1.108.038,2.263-.032,2.879,0,2.432.125,8.646.659,9.357.72,3.285.281,11.762,1.267,12.955,1.439,2.562.369,5.34.972,7.917,1.439,1.159.21,2.424.482,3.6.72,2.01.405,16.047,4.116,18.713,5.038,1.034.358,2.205.464,2.879.72,2,.756,6.567,2.222,7.917,2.879.213.1,2.768,1.668,3.6,2.159.741.438,5.489,3.376,5.758,3.6.138.115,1.319,1.931,2.159,2.879a17.948,17.948,0,0,1,4.318,7.917c.345,1.42.438,4.031.72,5.758.5,3.077,1.219,13.479.72,15.115-3.9,5.875-3.214,6.611-2.879,12.955.1,1.93,1.306,14.418,1.439,15.834.174,1.853.528,3.828.72,5.758.178,1.8.561,3.451.72,5.038.143,1.427,1.314,11.74,1.439,12.955.186,1.8.561,3.52.72,5.038.1.941-.1,1.938,0,2.879.179,1.71.543,3.35.72,5.038.18,1.719.546,3.378.72,5.038.873,8.305,2.7,27.92,2.879,29.509.08.7,2.1,18.2,2.159,18.713.168,1.465.584,6.026.72,7.2,1.042,8.953,1.442,18.515,2.879,27.35,1.268,7.793.848,5.014,5.038,10.8A109.408,109.408,0,0,1,239,226.762c1.668,4.786,2.276,29.54,2.159,30.949A39.914,39.914,0,0,1,239,265.628c-.124.288-1.794,3.022-2.159,3.6a46.658,46.658,0,0,1-4.318,5.038c-.574.619-1.528,1.554-2.159,2.159a85.809,85.809,0,0,1-7.2,5.758c-.675.473-1.463.995-2.159,1.439-1.848,1.182-3.887,2.47-5.758,3.6-1.154.7-2.456,1.5-3.6,2.159-1.342.777-5.01,2.5-7.689,5.026-4.57,4.306-9.6,8.877-30.457,18.006-11.763,5.148-38.687,7.156-39.917,7.2-22.254.836-45.593.032-67.325-7.923-.713-.261-7.646-2.842-10.088-4.331-9.837-6-16.669-14.074-17.982-15.1-.619-.485-1.695-.437-2.159-.72-2.495-1.522-5.448-2.168-7.917-3.6-.984-.57-2.063-.95-2.879-1.439-2.2-1.32-4.352-2.875-6.478-4.318-.951-.646-7.459-5.324-8.637-6.478-.593-.582-1.706-1.642-2.159-2.159-.735-.837-4.738-5.9-5.038-6.478-.089-.172-1.3-3.186-1.439-3.6a33.9,33.9,0,0,1-1.439-7.2c-.089-1.171-.022-2.42,0-3.6.064-3.419,1.244-14.232,1.439-15.834.259-2.12.414-4.39.72-6.478.227-1.552.4-3.61.72-5.038.654-2.89,9.2-14.139,10.076-16.554.505-1.393.451-3.562.72-5.038,1.563-8.587,1.841-17.925,2.879-26.63.144-1.2,1.288-10.918,1.439-12.236.2-1.708.666-6.008.72-6.478.194-1.708.535-3.406.72-5.038.244-2.157.478-4.322.72-6.478.884-7.87,1.339-15.868,2.159-23.751.151-1.455.534-3.247.72-5.038.049-.471-.049-.969,0-1.439.122-1.177.574-5.786.72-7.2.08-.776,1.274-10.6,1.439-12.236.171-1.691.551-3.323.72-5.038.177-1.8.579-3.565.72-5.038.158-1.65.566-7.7.72-9.357.18-1.946.56-3.811.72-5.758.18-2.192.6-4.262.72-6.478.05-.954-.022-1.922,0-2.879v-.72c.006-.717.03-1.445,0-2.159-.256-6.094-2.177-6.412-2.879-12.236-.056-.466.022-.967,0-1.439-.011-.239,0-.48,0-.72-.009-.954-.042-1.927,0-2.879a78.892,78.892,0,0,1,1.439-10.8c.3-1.425.205-3.678.72-5.038a62.5,62.5,0,0,1,4.318-5.758,35.5,35.5,0,0,1,2.879-2.159,54.5,54.5,0,0,1,7.917-5.038c.514-.266,1.427-.376,2.159-.72,2.351-1.106,5.587-2.767,7.917-3.6.687-.245,1.458-.486,2.159-.72C58.007,7.83,64.81,6.51,67.7,5.8A316.552,316.552,0,0,1,112.324.043m-69.1,45.344.437-1.458L74.173,38.9c-15.729-12.111,6.36-19.558,16.554-21.949,24-5.628,52.466-4.552,75.189,5.3L187.522,13.8c19.109,5.564,25.465,15.459,23.953,35.375-3.35,16.17-54.279,25.652-68.566,25.727l-1.072,1.427c15.32.2,65.167-8.89,70.461-24.9,1.552-4.7.279-19.427-1.723-24.047C202.7,9.211,146.833,3.318,129.265,2.9,106.872,2.358,50.527,6.49,34.571,23.413c-6,6.36-10.046,32.19,2.9,34.925C37.94,51,41.9,46.254,35.664,40.366c2.186,2.854,4.686,3.735,7.565,5.022-.1,1.955,8.492,5.452,10.607,6.307C88.61,65.752,158.512,65.815,192.471,49.6a37.526,37.526,0,0,0,9.11-6.013c-44.067,18.966-114.266,21.5-158.352,1.8M169.184,29.544c-9.227-10.27-29.466-12.5-42.789-12.982-16.164-.582-41.764.716-53.664,12.622,29.341-12.558,67.243-12.83,96.453.36m-21.6,16.571c-19.013,2.135-37.9,1.519-56.864-.369,18.351,4.4,38.528,4.978,56.864.369M115.2,135.355c-.891,24-1.867,48.017-3.247,71.979l-3.222-71.974L106.52,259.446c2.767.862,7.368,2.523,9.4-.3.214-.3.7-.25,0-.72.053-2.152-.075-4.328,0-6.478V164.864c1.272-9.214.787-18.786.72-28.07,0-.48.005-.96,0-1.439-.013-1.294.272-10.084-.36-10.085-1.129,3.286-.953,6.677-1.08,10.085m26.635,14.4,3.29,110.02,8.479-.725-4.585-132.326-1.439,82.042-4.318-57.939Zm55.412-22.32L199.4,193.65l-6.475-47.5-1.456,1.089,10.457,99.687,6.124-3.242ZM25.227,236.118,35.68,128.174l-6.85,46.048-1.421-.345,1.433-28.442L20.191,225Zm15.846-41.751,3.587-62.607L33.131,243.543l7.934,4.087L49,141.837Zm37.42,63.345,5.033-125.951-6.473,66.208-1.437-1.062.01-56.509-7.16,115.832Zm87.088-125.951-1.437,1.062,1.432,74.5-4.314-47.494-1.63.887,4.165,97.006,9.739-1.867ZM59.779,254.11l7.192-121.628-7.912,67.646.013-60.45-9.029,111.58Zm65.5-120.194V259.87h10.076l-2.9-106.878-1.416-1.079-2.155,48.214Zm56.856,0-1.435,1.063,2.15,64.429-7.185-62.23-1.456-.011,8.3,116.957,9.756-3.943-9.277-104.432,2.028-2.825ZM93.62,209.484l-1.088-72.7L87.45,258.476,97.2,259.87c-.24-1.866.554-3.615.712-5.414,2.57-29.287,2.7-70.946,2.193-100.709-.016-.936-.406-8.316-2.174-7.589Zm118.745-64.776-1.421.347,2.135,27.722L210.2,156.231l-1.419,1.776,8.265,77.387,3.62-5.736Zm17.262,69.826-1.436.363c1.868,5.114,5.1,7.414,6.3,13.131,2.107,10.035,4.168,29.743-1.684,38.25-21.036,30.58-98.855,36.734-132.718,34.254a4.245,4.245,0,0,0,2.536,1.782c4.67.905,18.359.841,23.757.768,28.567-.388,92.295-9.537,108.6-36.066,5.648-9.188,3.508-30.736.916-41.117-1.219-4.879-3.979-7.273-6.277-11.365M26.67,249.087c-6.587-3.452-14.509-12.979-15.112-20.527-.323-4.053,1.5-7.862.366-11.87a17.938,17.938,0,0,0-4.236,5.84c-2.6,6.086-4.718,27.312-4.075,34.13.648,6.874,4.972,12.278,9.758,16.878,1.641.33.889-.725,1.179-1.668.728-2.364,3.057-16.151,2.839-18.125-.3-2.713-6.136-8.793-7.267-11.859l12.716,12.825c42.229,31.33,144.963,30.463,189.471,4.021,6.278-3.729,13.543-8.933,16.626-15.763-32.3,28.96-88.863,33.051-130.632,29.843-26.381-2.027-54.184-7.69-76.663-21.941Z" transform="translate(0 0)" fill="#c56a68"/>
          </g>
        </g>
      </g>
    </g>
  </g>
</svg>
