<svg xmlns="http://www.w3.org/2000/svg" xmlns:xlink="http://www.w3.org/1999/xlink" width="700" height="500" viewBox="0 0 500 350">
  <g id="Catégorie_Filtration" data-name="Catégorie Filtration" clip-path="url(#clip-Catégorie_Filtration)">
    <g id="PAGE_FOND" data-name="PAGE FOND">
      <g id="Filtre_habitacle" data-name="Filtre habitacle" transform="translate(20 87)">
        <g id="Composant_31_2" data-name="Composant 31 – 2" transform="translate(0 227.228)">
          <text id="Filtre_habitacle-2" data-name="Filtre habitacle" transform="translate(209 59)" fill="#809c8b" font-size="56" font-family="Poppins-Medium, Poppins" font-weight="500"><tspan x="-170" y="0">Filtre habitacle</tspan></text>
        </g>
        <g id="Filtre_habitacle-3" data-name="Filtre habitacle" transform="translate(2)">
          <g id="Groupe_de_masques_270" data-name="Groupe de masques 270" clip-path="url(#clip-path-5)">
            <path id="Tracé_485" data-name="Tracé 485" d="M117.628,14.82c2.4,8.025,2.05,70.3,2.05,75.968v95.089c0,2.566.408,5.549,0,8.091a6.392,6.392,0,0,1-.4,1.377h6.477c-.059-.183-.12-.357-.182-.555-1.234-4.75,0-41.489,0-46.34V83.259c0-4.637-.04-9.254.2-13.88.295-5.7.664-41.4,1.234-47.08.224-2.128.194-5.163.95-7.479H117.628Z" fill="#809c8b"/>
            <path id="Tracé_486" data-name="Tracé 486" d="M92.764,14.82c2.4,8.025,2.062,70.3,2.062,75.968v95.089c0,2.566.406,5.549,0,8.091a5.836,5.836,0,0,1-.41,1.377h6.49c-.061-.183-.134-.357-.184-.555-1.234-4.75,0-41.489,0-46.34V83.259c0-4.637-.041-9.254.193-13.88.306-5.7.663-41.4,1.247-47.08.212-2.128.191-5.163.948-7.479H92.764Z" fill="#809c8b"/>
            <path id="Tracé_487" data-name="Tracé 487" d="M130.054,14.82c2.388,8.025,2.052,70.3,2.052,75.968v95.089c0,2.566.418,5.549,0,8.091a6.45,6.45,0,0,1-.4,1.377h6.478c-.061-.183-.122-.357-.184-.555-1.234-4.75,0-41.489,0-46.34V83.259c0-4.637-.04-9.254.205-13.88.3-5.7.662-41.4,1.235-47.08.224-2.128.193-5.163.948-7.479H130.054Z" fill="#809c8b"/>
            <path id="Tracé_488" data-name="Tracé 488" d="M142.482,14.82c2.4,8.025,2.05,70.3,2.05,75.968v95.089c0,2.566.419,5.549,0,8.091a6.28,6.28,0,0,1-.4,1.377h6.478c-.062-.183-.121-.357-.183-.555-1.224-4.75,0-41.489,0-46.34V83.259c0-4.637-.042-9.254.2-13.88.295-5.7.664-41.4,1.243-47.08.215-2.128.185-5.163.941-7.479H142.482Z" fill="#809c8b"/>
            <path id="Tracé_489" data-name="Tracé 489" d="M167.336,14.82c2.4,8.025,2.05,70.3,2.05,75.968v95.089c0,2.566.418,5.549,0,8.091a5.825,5.825,0,0,1-.4,1.377h6.478c-.061-.183-.122-.357-.172-.555-1.234-4.75,0-41.489,0-46.34V83.259c0-4.637-.052-9.254.193-13.88.3-5.7.663-41.4,1.245-47.08.214-2.128.193-5.163.95-7.479H167.336Z" fill="#809c8b"/>
            <path id="Tracé_490" data-name="Tracé 490" d="M179.762,14.82c2.4,8.025,2.05,70.3,2.05,75.968v95.089c0,2.566.419,5.549,0,8.091a5.731,5.731,0,0,1-.4,1.377H187.9c-.061-.183-.132-.357-.184-.555-1.234-4.75,0-41.489,0-46.34V83.259c0-4.637-.04-9.254.194-13.88.295-5.7.664-41.4,1.245-47.08.213-2.128.194-5.163.949-7.479H179.762Z" fill="#809c8b"/>
            <path id="Tracé_491" data-name="Tracé 491" d="M154.908,14.82c2.4,8.025,2.052,70.3,2.052,75.968v95.089c0,2.566.418,5.549,0,8.091a5.873,5.873,0,0,1-.4,1.377h6.479c-.061-.183-.122-.357-.174-.555-1.234-4.75,0-41.489,0-46.34V83.259c0-4.637-.05-9.254.194-13.88.295-5.7.664-41.4,1.245-47.08.213-2.128.194-5.163.939-7.479H154.908Z" fill="#809c8b"/>
            <path id="Tracé_492" data-name="Tracé 492" d="M55.482,14.82c2.4,8.025,2.052,70.3,2.052,75.968v95.089c0,2.566.418,5.549,0,8.091a5.92,5.92,0,0,1-.4,1.377h6.478c-.061-.183-.122-.357-.172-.555-1.234-4.75,0-41.489,0-46.34V83.259c0-4.637-.052-9.254.193-13.88.3-5.7.663-41.4,1.244-47.08.215-2.128.194-5.163.949-7.479H55.482Z" fill="#809c8b"/>
            <path id="Tracé_493" data-name="Tracé 493" d="M23.251,14.82a2.864,2.864,0,0,0-2.866,2.857V192.483a2.865,2.865,0,0,0,2.866,2.862h3.082c-.061-.183-.122-.357-.184-.555-1.234-4.75,0-41.489,0-46.34V83.259c0-4.637-.04-9.254.2-13.88.3-5.7.664-41.4,1.236-47.08.224-2.128.194-5.163.948-7.479H23.251Z" fill="#809c8b"/>
            <path id="Tracé_494" data-name="Tracé 494" d="M5.274,91.314c-.092,4.606-.121,9.162-.163,13.732-.019,4.576-.05,9.147.163,13.749.184-1.051.327-2.107.461-3.163a101.578,101.578,0,0,0,.631-10.575,81.12,81.12,0,0,0-.631-11c-.134-.918-.277-1.831-.461-2.744" fill="#809c8b"/>
            <path id="Tracé_495" data-name="Tracé 495" d="M80.336,14.82c2.4,8.025,2.052,70.3,2.052,75.968v95.089c0,2.566.418,5.549,0,8.091a5.874,5.874,0,0,1-.4,1.377h6.49c-.062-.183-.133-.357-.182-.555-1.237-4.75,0-41.489,0-46.34V83.259c0-4.637-.043-9.254.191-13.88.308-5.7.664-41.4,1.246-47.08.215-2.128.194-5.163.948-7.479H80.336Z" fill="#809c8b"/>
            <path id="Tracé_496" data-name="Tracé 496" d="M30.629,14.82c2.4,8.025,2.05,70.3,2.05,75.968v95.089c0,2.566.419,5.549,0,8.091a5.824,5.824,0,0,1-.4,1.377H38.76c-.062-.183-.123-.357-.185-.555-1.234-4.75,0-41.489,0-46.34V83.259c0-4.637-.04-9.254.206-13.88.3-5.7.662-41.4,1.234-47.08.225-2.128.194-5.163.948-7.479H30.629Z" fill="#809c8b"/>
            <path id="Tracé_497" data-name="Tracé 497" d="M43.056,14.82c2.4,8.025,2.05,70.3,2.05,75.968v95.089c0,2.566.418,5.549,0,8.091a5.777,5.777,0,0,1-.4,1.377h6.479c-.061-.183-.122-.357-.174-.555-1.234-4.75,0-41.489,0-46.34V83.259c0-4.637-.05-9.254.194-13.88.295-5.7.664-41.4,1.245-47.08.213-2.128.185-5.163.949-7.479H43.056Z" fill="#809c8b"/>
            <path id="Tracé_498" data-name="Tracé 498" d="M67.91,14.82c2.4,8.025,2.05,70.3,2.05,75.968v95.089c0,2.566.418,5.549,0,8.091a5.777,5.777,0,0,1-.4,1.377h6.48c-.051-.183-.123-.357-.174-.555-1.234-4.75,0-41.489,0-46.34V83.259c0-4.637-.04-9.254.193-13.88.3-5.7.664-41.4,1.246-47.08.213-2.128.194-5.163.948-7.479H67.91Z" fill="#809c8b"/>
            <path id="Tracé_499" data-name="Tracé 499" d="M192.188,14.82c2.4,8.025,2.052,70.3,2.052,75.968v95.089c0,2.566.418,5.549,0,8.091a5.429,5.429,0,0,1-.4,1.377h6.487a4.621,4.621,0,0,1-.182-.555c-1.236-4.75,0-41.489,0-46.34V83.259c0-4.637-.043-9.254.194-13.88.295-5.7.662-41.4,1.243-47.08.215-2.128.194-5.163.949-7.479H192.188Z" fill="#809c8b"/>
            <path id="Tracé_500" data-name="Tracé 500" d="M105.2,14.82c2.386,8.025,2.05,70.3,2.05,75.968v95.089c0,2.566.409,5.549,0,8.091a6.392,6.392,0,0,1-.4,1.377h6.478c-.062-.183-.133-.357-.185-.555-1.234-4.75,0-41.489,0-46.34V83.259c0-4.637-.04-9.254.206-13.88.3-5.7.662-41.4,1.234-47.08.215-2.128.194-5.163.948-7.479H105.2Z" fill="#809c8b"/>
            <path id="Tracé_501" data-name="Tracé 501" d="M353.759,14.82c2.388,8.025,2.052,70.3,2.052,75.968v95.089c0,2.566.409,5.549,0,8.091a6.45,6.45,0,0,1-.4,1.377h6.478c-.062-.183-.122-.357-.184-.555-1.234-4.75,0-41.489,0-46.34V83.259c0-4.637-.04-9.254.2-13.88.3-5.7.662-41.4,1.235-47.08.224-2.128.193-5.163.948-7.479H353.759Z" fill="#809c8b"/>
            <path id="Tracé_502" data-name="Tracé 502" d="M341.332,14.82c2.388,8.025,2.05,70.3,2.05,75.968v95.089c0,2.566.41,5.549,0,8.091a6.279,6.279,0,0,1-.4,1.377h6.479c-.061-.183-.133-.357-.185-.555-1.233-4.75,0-41.489,0-46.34V83.259c0-4.637-.04-9.254.2-13.88.295-5.7.664-41.4,1.234-47.08.224-2.128.2-5.163.95-7.479H341.332Z" fill="#809c8b"/>
            <path id="Tracé_503" data-name="Tracé 503" d="M328.907,14.82c2.388,8.025,2.05,70.3,2.05,75.968v95.089c0,2.566.409,5.549,0,8.091a6.28,6.28,0,0,1-.4,1.377h6.479c-.062-.183-.133-.357-.185-.555-1.234-4.75,0-41.489,0-46.34V83.259c0-4.637-.04-9.254.205-13.88.3-5.7.663-41.4,1.235-47.08.215-2.128.194-5.163.948-7.479H328.907Z" fill="#809c8b"/>
            <path id="Tracé_504" data-name="Tracé 504" d="M366.187,14.82c2.4,8.025,2.05,70.3,2.05,75.968v95.089c0,2.566.419,5.549,0,8.091a5.686,5.686,0,0,1-.4,1.377h6.481c-.062-.183-.123-.357-.175-.555-1.244-4.75,0-41.489,0-46.34V83.259c0-4.637-.052-9.254.193-13.88.3-5.7.664-41.4,1.246-47.08.213-2.128.183-5.163.939-7.479H366.187Z" fill="#809c8b"/>
            <path id="Tracé_505" data-name="Tracé 505" d="M378.613,14.82c2.4,8.025,2.053,70.3,2.053,75.968v95.089c0,2.566.418,5.549,0,8.091a5.871,5.871,0,0,1-.4,1.377h6.48c-.062-.183-.123-.357-.173-.555-1.235-4.75,0-41.489,0-46.34V83.259c0-4.637-.052-9.254.192-13.88.3-5.7.664-41.4,1.245-47.08.216-2.128.185-5.163.939-7.479H378.613Z" fill="#809c8b"/>
            <path id="Tracé_506" data-name="Tracé 506" d="M409.314,0H9.928A3.759,3.759,0,0,0,6.173,3.761V85.75H3.766A3.761,3.761,0,0,0,0,89.513v31.139a3.761,3.761,0,0,0,3.766,3.76H6.173V206.4a3.767,3.767,0,0,0,3.755,3.765H409.314a3.768,3.768,0,0,0,3.766-3.765V3.761A3.764,3.764,0,0,0,409.314,0M9.928,206.4v-.163l-.469-81.825H10.4Zm393.949-13.917A7.886,7.886,0,0,1,396,200.36H23.252a7.88,7.88,0,0,1-7.875-7.877V120.652H3.766V89.513H15.377V17.677a7.879,7.879,0,0,1,7.875-7.871H396a7.881,7.881,0,0,1,7.877,7.871ZM394.949,3.893l-11.163.1-12.426.113-12.426.112L346.5,4.332l-4.816.046-7.612.041-12.426.061-12.427.066-12.427.061-12.426.067-10.306.051-2.123.005-12.425.025-12.438.031-12.426.026-12.428.025-12.426.025-12.426.026-12.429.031-12.425.025-12.429.026-12.426.025-8.856.021-3.582-.006-12.426-.02-12.428-.02L97.937,4.949,85.509,4.924,73.083,4.9H71.166l-10.509-.02L48.229,4.862l-10.887-.02H35.8L24.467,4.816l-4.031-.009-8.355-.036a1.28,1.28,0,0,0-.969.6,1.2,1.2,0,0,0-.184.56c-.01.067-.01.282-.01.45v.53L10.9,11.137,10.662,85.75H9.2L8.97,11.137,8.949,6.913v-.53c0-.184-.01-.322.009-.6a3.156,3.156,0,0,1,.459-1.439,3.459,3.459,0,0,1,.511-.653,3.368,3.368,0,0,1,1.959-.913l8.549-.061,4.031,0L35.8,2.684l1.539-.005,10.887-.015,12.428-.02,10.509-.021h1.917L85.509,2.6l12.428-.022,12.426-.025,12.428-.021,12.426-.02,3.582-.005,8.856.02,12.426.026,12.429.025,12.425.026,12.429.025,12.426.031,12.426.025,12.428.026,12.426.026,12.438.026,12.425.024,2.123.005,10.306.057,12.426.061,12.427.066,12.427.061,12.426.067,7.612.04,4.816.046,12.438.113,12.426.112,12.426.112,11.163.1,14.365.128Z" fill="#809c8b"/>
            <path id="Tracé_507" data-name="Tracé 507" d="M316.479,14.82c2.388,8.025,2.04,70.3,2.04,75.968v95.089c0,2.566.418,5.549,0,8.091a5.724,5.724,0,0,1-.388,1.377h6.48c-.061-.183-.132-.357-.184-.555-1.234-4.75,0-41.489,0-46.34V83.259c0-4.637-.041-9.254.2-13.88.3-5.7.664-41.4,1.237-47.08.212-2.128.193-5.163.948-7.479H316.479Z" fill="#809c8b"/>
            <path id="Tracé_508" data-name="Tracé 508" d="M396,14.82h-4.958c2.4,8.025,2.05,70.3,2.05,75.968v95.089c0,2.566.418,5.549,0,8.091a5.778,5.778,0,0,1-.4,1.377H396a2.857,2.857,0,0,0,2.857-2.862V17.677A2.856,2.856,0,0,0,396,14.82" fill="#809c8b"/>
            <path id="Tracé_509" data-name="Tracé 509" d="M254.334,14.82c2.4,8.025,2.05,70.3,2.05,75.968v95.089c0,2.566.419,5.549,0,8.091a6.282,6.282,0,0,1-.4,1.377h6.479c-.062-.183-.121-.357-.173-.555-1.234-4.75,0-41.489,0-46.34V83.259c0-4.637-.05-9.254.193-13.88.3-5.7.662-41.4,1.247-47.08.212-2.128.182-5.163.938-7.479H254.334Z" fill="#809c8b"/>
            <path id="Tracé_510" data-name="Tracé 510" d="M229.48,14.82c2.389,8.025,2.053,70.3,2.053,75.968v95.089c0,2.566.406,5.549,0,8.091a6.452,6.452,0,0,1-.4,1.377h6.48c-.062-.183-.135-.357-.185-.555-1.233-4.75,0-41.489,0-46.34V83.259c0-4.637-.04-9.254.2-13.88.295-5.7.664-41.4,1.235-47.08.224-2.128.193-5.163.949-7.479H229.48Z" fill="#809c8b"/>
            <path id="Tracé_511" data-name="Tracé 511" d="M204.617,14.82c2.4,8.025,2.062,70.3,2.062,75.968v95.089c0,2.566.407,5.549,0,8.091a5.836,5.836,0,0,1-.41,1.377h6.49c-.062-.183-.132-.357-.184-.555-1.234-4.75,0-41.489,0-46.34V83.259c0-4.637-.04-9.254.193-13.88.308-5.7.664-41.4,1.245-47.08.214-2.128.195-5.163.95-7.479H204.617Z" fill="#809c8b"/>
            <path id="Tracé_512" data-name="Tracé 512" d="M241.907,14.82c2.4,8.025,2.052,70.3,2.052,75.968v95.089c0,2.566.418,5.549,0,8.091a6.338,6.338,0,0,1-.4,1.377h6.48c-.061-.183-.122-.357-.184-.555-1.234-4.75,0-41.489,0-46.34V83.259c0-4.637-.041-9.254.205-13.88.3-5.7.662-41.4,1.235-47.08.224-2.128.193-5.163.948-7.479H241.907Z" fill="#809c8b"/>
            <path id="Tracé_513" data-name="Tracé 513" d="M217.054,14.82c2.386,8.025,2.05,70.3,2.05,75.968v95.089c0,2.566.409,5.549,0,8.091a6.393,6.393,0,0,1-.4,1.377h6.479c-.062-.183-.133-.357-.183-.555-1.236-4.75,0-41.489,0-46.34V83.259c0-4.637-.042-9.254.2-13.88.3-5.7.663-41.4,1.235-47.08.214-2.128.194-5.163.948-7.479H217.054Z" fill="#809c8b"/>
            <path id="Tracé_514" data-name="Tracé 514" d="M279.189,14.82c2.4,8.025,2.05,70.3,2.05,75.968v95.089c0,2.566.418,5.549,0,8.091a5.733,5.733,0,0,1-.4,1.377h6.479c-.062-.183-.121-.357-.173-.555-1.234-4.75,0-41.489,0-46.34V83.259c0-4.637-.052-9.254.193-13.88.3-5.7.662-41.4,1.244-47.08.215-2.128.194-5.163.951-7.479H279.189Z" fill="#809c8b"/>
            <path id="Tracé_515" data-name="Tracé 515" d="M291.615,14.82c2.4,8.025,2.052,70.3,2.052,75.968v95.089c0,2.566.419,5.549,0,8.091a5.78,5.78,0,0,1-.4,1.377h6.491a4.815,4.815,0,0,1-.185-.555c-1.234-4.75,0-41.489,0-46.34V83.259c0-4.637-.04-9.254.194-13.88.3-5.7.664-41.4,1.246-47.08.212-2.128.194-5.163.948-7.479H291.615Z" fill="#809c8b"/>
            <path id="Tracé_516" data-name="Tracé 516" d="M266.761,14.82c2.4,8.025,2.052,70.3,2.052,75.968v95.089c0,2.566.418,5.549,0,8.091a5.873,5.873,0,0,1-.4,1.377h6.48c-.062-.183-.123-.357-.175-.555-1.234-4.75,0-41.489,0-46.34V83.259c0-4.637-.05-9.254.2-13.88.3-5.7.662-41.4,1.243-47.08.215-2.128.185-5.163.94-7.479H266.761Z" fill="#809c8b"/>
            <path id="Tracé_517" data-name="Tracé 517" d="M304.042,14.82c2.4,8.025,2.051,70.3,2.051,75.968v95.089c0,2.566.418,5.549,0,8.091a5.43,5.43,0,0,1-.4,1.377h6.488c-.06-.183-.133-.357-.183-.555-1.235-4.75,0-41.489,0-46.34V83.259c0-4.637-.042-9.254.194-13.88.3-5.7.663-41.4,1.244-47.08.215-2.128.194-5.163.95-7.479H304.042Z" fill="#809c8b"/>
          </g>
        </g>
      </g>
    </g>
  </g>
</svg>
