<svg xmlns="http://www.w3.org/2000/svg" xmlns:xlink="http://www.w3.org/1999/xlink" width="700" height="400" viewBox="0 0 500 400">
  <g id="Catégorie_Filtration" data-name="Catégorie Filtration" clip-path="url(#clip-Catégorie_Filtration)">
    <g id="PAGE_FOND" data-name="PAGE FOND">
      <g id="Filtre_à_carburant" data-name="Filtre à carburant" transform="translate(50 125)">
        <g id="Composant_31_4" data-name="Composant 31 – 4" transform="translate(0 213.446)">
          <text id="Filtre_à_carburant-2" data-name="Filtre à carburant" transform="translate(243 59)" fill="#a5927e" font-size="56" font-family="Poppins-Medium, Poppins" font-weight="500"><tspan x="-270" y="0">Filtre à carburant</tspan></text>
        </g>
        <g id="Filtre_à_carburant-3" data-name="Filtre à carburant" transform="translate(370) rotate(90)">
          <g id="Groupe_266" data-name="Groupe 266" transform="translate(0 -0.029)" clip-path="url(#clip-path-3)">
            <path id="Tracé_476" data-name="Tracé 476" d="M122.775,396.308l-.263-13.164c3.045-2.523,4.851-6.075,5.432-10.72a28.26,28.26,0,0,0,.2-4.1l-.558-30.353a301.418,301.418,0,0,0,31.535-7.959c24.844-7.864,36.941-16.534,36.994-26.511l.045-10.023.353-71.258.056-10.888.017-3.155.391-78.322a5.4,5.4,0,0,0,4.107-5.2l.019-3.311c0-.15,0-.3-.005-.463a14.833,14.833,0,0,0-.413-3.143,15.285,15.285,0,0,0-.573-1.817,11.779,11.779,0,0,0-11.2-7.819l-2.26.05.005-7.157.005-4.68c.005-.129,0-.254,0-.39a14.705,14.705,0,0,0-.119-1.477,13.79,13.79,0,0,0-3.258-7.455c-.125-.146-.254-.275-.385-.417a11.429,11.429,0,0,0-8.519-3.605l-27.054.667-20.346.492L126.7,67.783l-.4-22.74c0-.013,0-.1,0-.114a14.625,14.625,0,0,0-3.443-9.209,12.334,12.334,0,0,0-3.642-2.908l-.2-10.264-.134-6.864a17.333,17.333,0,0,0-3.984-10.855A13.316,13.316,0,0,0,104.517,0L97.54.175,90.565.346c-7.705.188-13.8,7.488-13.58,16.277l.5,17.224A13.987,13.987,0,0,0,71,46.282c0,.012,0,.1,0,.109l.091,2.944,1.136,36.133L24.831,86.633c-6.7.167-11.809,6.108-11.628,13.54,0,.127.006.262.013.386l.6,11.826-2.255.059C4.9,112.6-.171,118.484,0,125.8c.008.161.009.311.016.46l.187,3.308a5.4,5.4,0,0,0,4.357,5l.077,1.46L6.08,162.614l1.192,22.16.519,9.619.346,6.418L9.315,222.6l.111,2.075,4.5,83.294a11.988,11.988,0,0,0,.308,2.167,12.845,12.845,0,0,0,.941,2.62,20.59,20.59,0,0,0,6.429,7.262c6.278,4.7,16.424,8.894,30.559,12.619a305.312,305.312,0,0,0,31.891,6.41l.51,16.831.416,13.505c.205,6.685,2.315,11.5,6.357,14.521l.255,8.845.13,4.312c.172,5.744,1.99,13.336,15.847,12.994a22.313,22.313,0,0,0,8.757-1.712l1.757-.983c4.176-2.827,4.769-7.34,4.691-11.052M98.021,11.735l-.138-5.206-.186,0-4.353.082a21.975,21.975,0,0,0-4.118.243A7.516,7.516,0,0,0,85.2,9.765l.659,23.141-2.98.072L82.77,29.3c-.327-2.9-.607-5.79-.806-8.687-.092-1.453-.212-2.877-.28-4.37a12.639,12.639,0,0,1,.664-4.541,9.966,9.966,0,0,1,6.41-6.541,9.984,9.984,0,0,1,2.365-.312l2.17-.077,4.355-.134,4.358-.072,2.171-.039a10.045,10.045,0,0,1,2.381.2,9.965,9.965,0,0,1,6.712,6.22,12.8,12.8,0,0,1,.89,4.508c.01,1.487-.042,2.92-.065,4.373-.037,1.865-.109,3.726-.207,5.586-.054,1.045-.1,2.084-.171,3.13l.071,3.676-12.63.311-2.634.07-.448-18.254a1.127,1.127,0,0,1-.192.006c-9.182.228-10.746-1.043-10.746-1.043l21.441-.526s-1.559-1.251-10.559-1.049M77.508,81.006c-.66-8.719-1.122-17.448-1.545-26.174l-.3-6.553c-.006-.476-.04-.965-.064-1.458a17.525,17.525,0,0,1,.026-1.91,10.325,10.325,0,0,1,.892-3.445,7.746,7.746,0,0,1,5.461-4.57,12.37,12.37,0,0,1,1.777-.133l1.633-.052,3.28-.1,5.377-.1,7.725-.133c4.418-.031,8.636-.254,13.207-.079a5.654,5.654,0,0,1,3.283,1.552,7.968,7.968,0,0,1,1.852,3,22.8,22.8,0,0,1,1.163,6.58c.2,4.412.005,8.768-.109,13.143l.175,10.215.229,13.092-21.775.535-.038-1.56-.21-8.49a1.115,1.115,0,0,1-.192.008c-15.017.369-17.558-.875-17.558-.875l35.062-.861s-2.532-1.237-17.378-.889l-.515-21.289c-.069,0-.122.008-.191.008-15.132.371-17.692-.877-17.692-.877l35.322-.866s-2.551-1.24-17.505-.881L98.659,38.2l-8.088.249-1.863.058-3.276.062c-1.042.038-2.308-.012-3.131.12a5.263,5.263,0,0,0-2.784,1.519l.131,4.349,1.226,40.319-3.237.078ZM18.621,100.291c0-.085-.006-.171-.006-.248-.108-4.353,2.692-7.914,6.349-8l49.842-1.223,3.014-.069,8.161-.2,35.694-.869,3.009-.079,12.526-.3,37.316-.918a5.722,5.722,0,0,1,3.365,1,8.211,8.211,0,0,1,3.367,6.676,1.39,1.39,0,0,1,0,.251v1.1l0,6.614-.008,4.644-8.669.207-12.365.3-18.544.458-42.7,1.05-51.224,1.25-28.5.692ZM8.094,129.207l-2.486.063-.177-3.3c-.01-.1-.013-.195-.019-.294-.1-4.252,2.662-7.73,6.278-7.819l5.19-.133,2.615-.059,18.81-.457,51.234-1.255,42.7-1.049,18.54-.456,12.364-.3,18.1-.439,2.609-.069,5.195-.124c2.891-.072,5.346,2.058,6.256,5.1a9.332,9.332,0,0,1,.362,1.936c.012.158.024.315.026.477,0,.1,0,.188,0,.289l-.019,3.309-2.487.063-5.155.129-3.982.09-14.8.363-27.188.665-12.359.3-18.544.46-10.517.257-32.187.792-36.428.891-14.8.362Zm37.987,74.974-.1-2.084-.939-21.922-.279-6.455-.412-9.68L43.4,141.748l-.344-7.984,4-.088.248,5.889.926,22.308.4,9.685.27,6.46.908,21.94.093,2.086,3.362,80.794-3.814.085Zm-2.971,76.7a27.912,27.912,0,0,1-3.364-8.446,74.393,74.393,0,0,1-1.663-8.978c-.784-6.047-1.021-12.12-1.4-18.166l-1.74-34.884-.075-1.424-.027-.657c-.291-7.3-.628-14.611-.928-21.928l-.26-6.466c-.092-2.424-.171-4.846-.248-7.282l-.089-2.439q-.391-11.213-.69-22.441-.148-5.738-.243-11.467c-.039-.813-.072-1.577-.11-2.276l2.423-.051.559,12.325,1.013,22.26.437,9.666.3,6.445L38,206.561l.1,2.081,3.064,67.321a23.358,23.358,0,0,0,1.942,4.919m14.806-83.318-.082-2.091-.856-21.968-.255-6.469-.373-9.7-.869-22.341-.061-1.532,2.921-.067,1.075-.031.824,21.8.364,9.706.245,6.474.827,21.984.083,2.092,3.251,86.329.031.8-1.524.031-2.285.062Zm75.971-44.614.034,2.119,1.221,87.466.044,3.121.147,10.775.347,24.39-3.805.092-.346-22.356-.161-10.767-.05-3.117-1.335-87.4-.034-2.118-.342-22.257-.024-1.251,2.363-.057,1.644-.034Zm8.064-21.61,4-.088.149,14.869.024,2.124L147,235.9l.03,3.128.108,10.8.313,30.7-3.809.093-.331-28.658-.118-10.79-.035-3.126-.989-87.6-.029-2.122Zm-20.622,6.184.4,22.223.04,2.116,1.567,87.272.054,3.115L123.58,263l.332,18.1-3.818.088-.308-16.07-.2-10.742-.059-3.113-1.673-87.213-.043-2.114-.429-22.207-.123-6.542-.024-1.238,2.353-.065,1.644-.034Zm-12.344.29.145,6.531.486,22.175.048,2.111,1.905,87.084.068,3.107.234,10.727.262,11.85-3.8.092-.232-9.831-.248-10.718-.069-3.108-2.016-87.021-.052-2.109-.515-22.159-.155-6.526-.176-7.763,4-.1ZM96.815,144.62l.173,6.515.572,22.127.057,2.105,2.242,86.9.079,3.1.277,10.7.147,5.62-3.815.084-.1-3.6-.288-10.7-.083-3.1-2.351-86.834-.064-2.1-.6-22.111-.177-6.513-.263-9.762-.119-4.5,4-.1.061,2.393Zm-12.406-2.974L84.7,151.4l.194,6.5.659,22.078.068,2.1,2.577,86.708.094,3.093.3,10.094-3.814.085-.25-8.076-.1-3.09-2.688-86.646-.068-2.1-.683-22.065-.205-6.5-.3-9.744-.344-10.981,4-.1Zm-12.11,6.77.325,9.727.217,6.491.745,22.029.072,2.1,2.921,86.515.1,3.088.134,3.893-3.812.1-.069-1.9-.107-3.085L69.8,190.918l-.078-2.094-.77-22.016-.226-6.486-.341-9.719-.612-17.44,4-.1ZM54.11,287.841l5.884-.145,20.317-.5,80.09-1.955c-.41,5.449-1.825,14.367-6.621,14.483-6.9.169-48.881,1.191-48.876,1.2l-48.876,1.19a3.576,3.576,0,0,1-1.717-.382c-2.309-1.122-3.75-4.651-4.633-8.266-.227-.948-.424-1.9-.58-2.822s-.294-1.847-.4-2.675Zm101.314-7.5-.264-34.992-.08-10.813-.025-3.13-.642-87.79-.025-2.124-.078-10.446,4-.1.052,8.323.016,2.129.536,87.848.016,3.137L159,243.2l.235,37.043ZM167.046,238.7l-.036-10.837L167,224.723l-.3-87.98-.011-2.132-.015-3.871,2.6-.063v2.488l.009,2.132.225,88.024.011,3.139.026,10.842.042,13.109c.03,11.854-1.019,19.189-2.416,23.7ZM25.287,317.958c-3.215-2.144-5.6-4.5-6.771-7.071a8.8,8.8,0,0,1-.753-2.724l-.029-.4-4.6-85.158-.117-2.072-1.179-21.788-.35-6.415-.514-9.623-1.2-22.158-1.392-25.93,9.911-.245a29.609,29.609,0,0,0-.23,6.651L18.8,155.5l1.129,22.2.489,9.636.332,6.426,1.112,21.825.111,2.076,3.383,66.3.986,19.408.155,3.059.251,4.776a8.983,8.983,0,0,0,2.067,4.784c2.242,2.956,6.115,6.051,10.789,8.8a67.42,67.42,0,0,1-14.319-6.823m62.481,17.751s-3.947-.5-9.939-1.522a22.515,22.515,0,0,1-6.579-9.923c-1.575-.205-3.116-.418-4.574-.652-2.479-.434-4.805-.852-6.972-1.234-2.156-.411-4.14-.907-5.993-1.338-3.7-.827-6.773-1.75-9.359-2.567a71.241,71.241,0,0,1-10.17-3.868c-.649-.309-1.148-.56-1.525-.768a7.436,7.436,0,0,1-.925-.558l1.344.323a279.723,279.723,0,0,0,124.415,1.5q10.637-2.289,21.1-5.413a16.1,16.1,0,0,0-2.766-.009c-2.051.061-5.37.524-10.65,1.14h-.019l-9.4,1.259c-1.836.255-3.811.51-5.935.8q-3.189.4-6.846.832c-9.744,1.113-22.078,2.359-37.694,2.8-14.877.3-26.781-.256-36.347-.863-.5-2.586-.931-5.408-1.284-8.446l37.38-.916,48.877-1.2c3.965-.1,9.112-2.567,11.143-13.777a56.58,56.58,0,0,0,.722-5.929,5.574,5.574,0,0,0,.509-.322c5.967-3.966,8.723-14.975,8.668-34.661L174.91,234.3l-.027-10.842-.005-3.142-.234-88.018-.008-1.753,3.281-.077,15.255-.377-.413,80.227-.013,3.153-.056,10.888-.353,71.258-.031,7.868c-.1,19.266-68.583,31.343-68.583,31.343l-1.574.034Zm5.744,46.22a11.569,11.569,0,0,1-4.354-5.628,21.172,21.172,0,0,1-1.151-6.852c-.05-5.142-.12-10.285-.124-15.427q0-5.7.094-11.428c-.044-1.277-.072-2.424-.1-3.406l2.417-.063.395,13.33.741,24.725a9.632,9.632,0,0,0,3.067,3.3c3.513,2.282,8.09,2.59,12.418,2.5a.963.963,0,0,0,.169,0l-.238-9.751a1.235,1.235,0,0,1-.172.008c-11.016.27-12.893-.994-12.893-.994l25.729-.634s-1.857-1.25-12.73-1l-.531-21.862a1.073,1.073,0,0,1-.172.009,84.235,84.235,0,0,1-8.5-.152c-3.7-.3-4.508-.841-4.508-.841l6.289-.155,19.659-.477s-1.875-1.251-12.837-1l-.052-2.307L106,338.736l9.645-.236,8.144-.2c.011.981.035,2.13.059,3.419.6,8.929.939,17.865,1.282,26.811a22.736,22.736,0,0,1-.509,5.747c-.085.388-.187.772-.307,1.157a11.556,11.556,0,0,1-4.072,5.84,16.793,16.793,0,0,1-6.449,2.81,36.462,36.462,0,0,1-6.838.8l-1.3-.006a32.344,32.344,0,0,1-5.564-.468,16.7,16.7,0,0,1-6.581-2.488M107.5,407.022c-3.008,0-6.3-.206-9.028-2.118a7.092,7.092,0,0,1-2.752-3.872A12.144,12.144,0,0,1,95.4,396.5c.039.293.091.593.15.889-.006-.147-.013-.3-.016-.435l-.186-6.3-.129-4.605a21.356,21.356,0,0,0,2.451.8l.066,2.466.374,13.465a5.634,5.634,0,0,0,1.182.882c2.356,1.322,5.3,1.484,8.162,1.439a.957.957,0,0,1,.169,0l-.085-3.53a.911.911,0,0,0-.173.009c-7.612.185-8.916-1.1-8.916-1.1l17.777-.433s-1.293-1.262-8.753-1.1l-.272-11.212a30.184,30.184,0,0,0,11.543-2.269l.216,10.9c0,.151,0,.289.005.428.041-.289.077-.587.107-.882a12.258,12.258,0,0,1-.1,4.552,7.127,7.127,0,0,1-2.556,4.008c-2.637,2.031-5.909,2.407-8.921,2.548" transform="translate(0 0)" fill="#a5927e"/>
            <path id="Tracé_477" data-name="Tracé 477" d="M47.133,271.223a17.38,17.38,0,0,0,4.135,8.117,26,26,0,0,1,4.182-1.911c5.049-1.9,14.869-4.646,30.7-5.31,24.858-1.03,64.971-7.065,64.971-7.065l-76.9,1.877-20.311.5-5.884.144-1.526.042s.018.282.081.766a26.542,26.542,0,0,0,.546,2.841" transform="translate(3.781 21.55)" fill="#a5927e"/>
            <path id="Tracé_478" data-name="Tracé 478" d="M175.543,248.626c.3-11.1.428-22.2.506-33.311l.055-6.424-.01-4.458,0-3.148c-.012-10.714-.071-21.423-.281-32.139q-.3-19.869-1.347-39.756-1.163,19.875-1.615,39.746c-.3,11.418-.442,22.832-.531,34.26l-.023,3.158-.012,2.319-.005,8.547c.016,10.405.082,20.8.287,31.2q.3,19.494,1.3,38.975l.045.771.041-.82q1.153-19.452,1.584-38.919" transform="translate(14.008 10.52)" fill="#a5927e"/>
            <path id="Tracé_479" data-name="Tracé 479" d="M100.761,101.862l42.7-1.05,18.544-.458,12.358-.3,2.364-.058-2.1-.09c-2.2-.1-6.029-.283-10.813-.566-4.6-.262-10.069-.6-15.854-1.046-11.241-.855-23.624-2.047-32.884-3.644L114,94.462c-22.36-4.081-7.562-9.069-7.562-9.069l-26.359.644L23.713,87.419A4.873,4.873,0,0,0,19.2,92.774l.546,11.069,29.789-.729Z" transform="translate(1.56 6.943)" fill="#a5927e"/>
            <path id="Tracé_480" data-name="Tracé 480" d="M112.446,116.7l18.544-.46,12.359-.3,41.994-1.032,3.982-.089,3.274-.088-3-.066-3.655-.094-38.478-.933-11.329-.278-16.995-.408-39.136-.945-46.954-1.138-21.123-.513c-3.113.071-5.536,2.022-5.365,5.121l.205,3.8L18.513,119l51.229-1.253Z" transform="translate(0.533 8.973)" fill="#a5927e"/>
          </g>
        </g>
      </g>
    </g>
  </g>
</svg>
