<svg xmlns="http://www.w3.org/2000/svg" xmlns:xlink="http://www.w3.org/1999/xlink" width="700" height="400" viewBox="0 0 400 400">
  <g id="Catégorie_Filtration" data-name="Catégorie Filtration" clip-path="url(#clip-Catégorie_Filtration)">
    <g id="PAGE_FOND" data-name="PAGE FOND">
      <g id="Filtre_à_huile" data-name="Filtre à huile" transform="translate(0 12)">
        <g id="Composant_31_5" data-name="Composant 31 – 5" transform="translate(0 325.899)">
          <text id="Filtre_à_huile-2" data-name="Filtre à huile" transform="translate(170 59)" fill="#f0a736" font-size="56" font-family="Poppins-Medium, Poppins" font-weight="500"><tspan x="-145.596" y="0">Filtre à huile</tspan></text>
        </g>
        <g id="Filtre_à_huile-3" data-name="Filtre à huile" transform="translate(43)">
          <g id="Groupe_268" data-name="Groupe 268" clip-path="url(#clip-path-2)">
            <path id="Tracé_481" data-name="Tracé 481" d="M229.582,17.942C206.6,7.081,169.058,0,126.636,0,89.681,0,56.43,5.371,33.28,13.937,12.61,21.584,0,31.772,0,42.964V62.757c0,4.515,2.059,8.866,5.875,12.958L9.365,262.9h.144c1.123,9.162,8.56,19.38,23.771,27.842,18.6,10.356,48.832,18.09,93.356,18.09,53.228,0,86.019-11.049,102.946-24.415,8.814-6.958,13.324-14.544,14.18-21.517h.144l3.49-187.19c3.816-4.092,5.877-8.437,5.877-12.958V42.964c0-9.335-8.785-17.973-23.691-25.022m-196.3-.587C55.451,8.979,89.039,3.637,126.636,3.637c43.514,0,81.652,7.158,102.946,17.891,11.377,5.739,17.956,12.493,17.956,19.732,0,4.78-2.9,9.351-8.121,13.555a13.781,13.781,0,0,0,3.224-8.444c0-6-4.723-11.661-13.059-16.646-19.345-11.554-58.176-19.45-102.946-19.45-38.281,0-72.225,5.774-93.356,14.67-14.232,6-22.648,13.4-22.648,21.426A12.622,12.622,0,0,0,12.4,52.606c.714.612,1.459,1.2,2.225,1.749a67.176,67.176,0,0,0,14.437,7.662q2.1.834,4.223,1.608,5.6,2.036,11.4,3.606,7.942,2.218,16.069,3.832c5.386,1.147,10.835,2.06,16.293,2.886,5.459.872,10.949,1.526,16.436,2.163,11,1.22,22.06,2.082,33.16,2.77a263.18,263.18,0,0,1-33.394-.132A249.529,249.529,0,0,1,60.063,74.4,164.186,164.186,0,0,1,33.28,66.705c-1.775-.7-3.539-1.453-5.274-2.249a62.008,62.008,0,0,1-14.426-8.79,27.531,27.531,0,0,1-5.612-6.371A13.75,13.75,0,0,1,5.733,41.26c0-9.081,10.336-17.406,27.547-23.9m166.469,34.5a58.562,58.562,0,0,0,9.825-.791c-2.234,3.174-6.673,6.127-12.855,8.714a11.188,11.188,0,0,0-4.887-2.423c-7.438-2.143-19.519-2.143-26.956,0s-7.438,5.606,0,7.749a42.592,42.592,0,0,0,7.785,1.352,238.116,238.116,0,0,1-28.925,3.371c1.285-.734,2.021-1.566,2.021-2.443,0-3.03-8.53-5.484-19.06-5.484h-.061c-10.5.011-19,2.459-19,5.484,0,.883.745,1.714,2.042,2.454a237.593,237.593,0,0,1-29.017-3.372A42.7,42.7,0,0,0,88.518,65.1c7.448-2.143,7.448-5.612,0-7.749s-19.507-2.143-26.946,0a10.945,10.945,0,0,0-4.927,2.459c-6.244-2.6-10.723-5.576-12.958-8.775a58.352,58.352,0,0,0,9.97.816c10.518,0,19.048-2.459,19.048-5.484s-8.53-5.483-19.048-5.483a58.562,58.562,0,0,0-9.97.815c2.235-3.2,6.714-6.172,12.958-8.773a11,11,0,0,0,4.927,2.463c7.439,2.138,19.509,2.138,26.946,0s7.448-5.616,0-7.754a42.7,42.7,0,0,0-7.856-1.362,237.061,237.061,0,0,1,29.017-3.366c-1.3.734-2.042,1.566-2.042,2.452,0,3.016,8.5,5.47,19,5.479h.061c10.53,0,19.06-2.453,19.06-5.479,0-.881-.736-1.707-2.021-2.447a238.052,238.052,0,0,1,28.925,3.371,42.592,42.592,0,0,0-7.785,1.352c-7.438,2.138-7.438,5.612,0,7.754s19.507,2.138,26.956,0a11.229,11.229,0,0,0,4.887-2.427c6.182,2.591,10.621,5.539,12.855,8.712a58.674,58.674,0,0,0-9.825-.79c-10.53,0-19.06,2.458-19.06,5.483s8.53,5.484,19.06,5.484m39.964,82.735-.327,42.045c-.326,28.027-.52,56.059-.959,84.08v.082l-.01.077a22.186,22.186,0,0,1-.744,4.076,21.413,21.413,0,0,1-1.592,3.888,30.8,30.8,0,0,1-4.827,6.62c-.539.572-1.1,1.138-1.672,1.679a58.436,58.436,0,0,1-11.019,8.1c-9.234,5.332-19.294,8.832-29.476,11.443-20.448,5.143-41.526,6.729-62.451,6.836-20.926-.1-42-1.693-62.452-6.83C54,294.073,43.943,290.573,34.72,285.237c-.48-.274-.969-.56-1.44-.846a53.862,53.862,0,0,1-11.253-8.933,30.383,30.383,0,0,1-4.835-6.62,20.089,20.089,0,0,1-2.338-7.964l-.01-.077v-.082c-.427-27.419-.591-54.844-.9-82.269l-.3-41.138L13.5,96.166l1.256,41.122,1.122,41.122c.622,27.395,1.4,54.784,1.918,82.179.347,4.933,2.979,9.182,6.418,12.809a44.1,44.1,0,0,0,4.509,4.071L27.036,89.274q2.987,1.287,6.244,2.51c2.6.97,5.348,1.893,8.2,2.775,1.5.464,3.04.913,4.6,1.352,3.122.877,6.378,1.7,9.744,2.474,4,.914,8.173,1.745,12.469,2.5l.04,19.747c1.867.25,3.816.546,5.927.791,1,.113,2.04.234,3.1.352L77.3,102.339c3.121.449,6.326.846,9.57,1.209l.092,19.273c10.672,1.046,23.71,2,39.678,2.076a427.831,427.831,0,0,0,44.341-2.546q4.3-.5,8.029-.923c2.5-.291,4.806-.663,6.958-.929,4.307-.51,7.929-1.091,11-1.51,3.081-.4,5.6-.709,7.622-1.01,2.029-.265,3.6-.423,4.773-.52a22.858,22.858,0,0,1,3.2-.107,308.17,308.17,0,0,1-85.927,12.228,308.224,308.224,0,0,1-85.928-12.228,22.181,22.181,0,0,0,2.806,1.515c1.072.52,2.511,1.178,4.419,1.98,1.908.835,4.305,1.719,7.293,2.7,2.979,1.005,6.542,2.168,10.835,3.239.736.184,1.521.393,2.3.592l.3,141.671c1.764.238,3.61.515,5.61.744,1.163.133,2.367.276,3.612.419l-.489-140.8c1.213.25,2.458.5,3.754.766,1.856.336,3.835.668,5.866.984l.683,140.1c10.53,1.015,23.334,1.939,38.945,2.006a428.388,428.388,0,0,0,44.341-2.546q4.3-.49,8.029-.924c2.5-.29,4.806-.658,6.958-.929,4.307-.509,7.929-1.086,11-1.509,3.081-.4,5.6-.709,7.622-1.01,2.029-.266,3.6-.424,4.773-.516a22.579,22.579,0,0,1,3.2-.112,308.17,308.17,0,0,1-85.927,12.228,308.224,308.224,0,0,1-85.928-12.228,22.5,22.5,0,0,0,2.806,1.521c1.072.52,2.511,1.178,4.419,1.979,1.908.831,4.305,1.719,7.293,2.7,2.979,1,6.542,2.168,10.835,3.235.837.209,1.715.443,2.6.673l.041,18.62c3.071.7,6.151,1.32,9.264,1.867l-.061-18.436c1.05.219,2.121.439,3.234.668,2.071.372,4.3.74,6.591,1.1l.092,18.2a306.961,306.961,0,0,0,38.811,2.275c20.733-.026,41.587-1.536,61.666-6.51,10-2.52,19.844-5.917,28.72-11.013a52.358,52.358,0,0,0,12.04-9.193l.52-.561c3.182-3.505,5.57-7.571,5.906-12.254.541-28,1.328-55.988,1.981-83.984l1.152-42.029L239.9,92.544Zm-11.887,88.3c-.121-12.641-.05-25.282.052-37.924.173-12.645.387-25.287.8-37.923q.335-11.493.908-22.976.366-7.461.846-14.933.782,18.971.909,37.94c.132,12.641.061,25.287-.052,37.928-.173,12.641-.388,25.282-.807,37.918q-.333,11.358-.9,22.718c-.255,5.065-.531,10.131-.858,15.2q-.765-18.977-.9-37.944M249.864,62.757c0,7.3-7.233,14.8-20.282,21.273-21.1,10.473-57.4,18.283-102.946,18.283-39.26,0-71.653-5.8-93.356-14.105C14.222,80.913,3.407,71.684,3.407,62.757v-4.52C9.518,64.778,19.62,70.7,33.28,75.623c.889.322,1.8.637,2.714.948,24.264,8.23,56.454,12.77,90.642,12.77s66.38-4.54,90.641-12.77a131.792,131.792,0,0,0,12.305-4.825c8.887-4.051,15.713-8.607,20.282-13.509Z" fill="#f0a736"/>
            <path id="Tracé_482" data-name="Tracé 482" d="M207.7,85.214a263.11,263.11,0,0,1-26.823,5.015c-9.02,1.184-18.079,2.147-27.171,2.638q-13.512.839-27.067.83h-.225c-9.1.02-18.2-.295-27.292-.857-9.09-.511-18.15-1.464-27.159-2.673A259.269,259.269,0,0,1,45.136,85.1c-3.988-.979-7.958-2.1-11.856-3.412A106.985,106.985,0,0,1,19.415,75.93,85.5,85.5,0,0,0,33.28,83.256c3.664,1.555,7.428,2.907,11.2,4.12A210.838,210.838,0,0,0,71.357,93.9a321.878,321.878,0,0,0,55.054,4.657h.225a320.9,320.9,0,0,0,54.829-4.581A212.382,212.382,0,0,0,208.35,87.51a111.256,111.256,0,0,0,21.232-8.985c1.315-.744,2.612-1.541,3.887-2.366-1.286.633-2.582,1.245-3.887,1.821A128.378,128.378,0,0,1,207.7,85.214" fill="#f0a736"/>
            <path id="Tracé_483" data-name="Tracé 483" d="M155.551,45.56a6.429,6.429,0,0,1-1.683.8,24.11,24.11,0,0,1-3.735.856c-.031.006-.052.006-.092.01a2.028,2.028,0,0,0,.224-.857c0-3.7-10.58-6.688-23.629-6.688s-23.63,3-23.63,6.688a2.131,2.131,0,0,0,.215.847c-.021,0-.052,0-.083-.01a24.612,24.612,0,0,1-3.733-.852,6.874,6.874,0,0,1-1.683-.8,2.931,2.931,0,0,1-1.236-1.473,3.178,3.178,0,0,0,.226,2.269A7.992,7.992,0,0,0,98.067,48.3a16.483,16.483,0,0,0,3.582,2.822,35.59,35.59,0,0,0,8.061,3.439,60.162,60.162,0,0,0,16.926,2.326,60.384,60.384,0,0,0,16.927-2.342,35.1,35.1,0,0,0,8.059-3.438,16.346,16.346,0,0,0,3.582-2.811,8.188,8.188,0,0,0,1.357-1.944,3.146,3.146,0,0,0,.224-2.264,2.876,2.876,0,0,1-1.234,1.473m-12.367,3.092a15.257,15.257,0,0,0-2.285-.546c-1.552-.291-3.131-.449-4.7-.592-3.163-.265-6.326-.362-9.5-.362h-.061c-3.152,0-6.306.1-9.428.358-1.58.142-3.152.305-4.7.591a15.106,15.106,0,0,0-2.295.551c-.7.275-1.561.53-1.8,1.332.073-.868.96-1.342,1.633-1.709a15.637,15.637,0,0,1,2.275-.909,33.969,33.969,0,0,1,4.735-1.056,63.522,63.522,0,0,1,9.58-.714h.061a63.651,63.651,0,0,1,9.641.709,34.772,34.772,0,0,1,4.745,1.056,16.019,16.019,0,0,1,2.264.914c.684.367,1.573.841,1.634,1.709-.236-.8-1.1-1.052-1.8-1.332m2.868-2.77a14.453,14.453,0,0,0-2.652-.857,38.76,38.76,0,0,0-5.52-.969,103.3,103.3,0,0,0-11.244-.592,101.694,101.694,0,0,0-11.233.592,39.262,39.262,0,0,0-5.529.964,14.916,14.916,0,0,0-2.655.862c-.794.408-1.712.882-1.908,1.851.012-1.014.941-1.714,1.716-2.214a15.631,15.631,0,0,1,2.622-1.223,38.919,38.919,0,0,1,5.57-1.424,68.434,68.434,0,0,1,22.833,0,39.124,39.124,0,0,1,5.572,1.418,15.471,15.471,0,0,1,2.622,1.229c.785.5,1.7,1.2,1.714,2.214-.184-.969-1.113-1.443-1.908-1.851" fill="#f0a736"/>
            <path id="Tracé_484" data-name="Tracé 484" d="M34.148,148.715q-.337-11.9-.868-23.792-.411-9-.938-18.008-.748,20.92-.856,41.831c-.113,13.937-.031,27.873.1,41.816.184,13.932.418,27.873.836,41.805q.337,11.793.856,23.584c.265,6.071.594,12.146.939,18.218q.766-20.922.858-41.832c.112-13.942.031-27.874-.092-41.816-.184-13.937-.409-27.874-.837-41.806" fill="#f0a736"/>
          </g>
        </g>
      </g>
    </g>
  </g>
</svg>
